<?xml version="1.0" encoding="UTF-8"?>
<svg width="20px" height="20px" viewBox="0 0 20 20" version="1.1" xmlns="http://www.w3.org/2000/svg" xmlns:xlink="http://www.w3.org/1999/xlink">
    <!-- Generator: Sketch 45.2 (43514) - http://www.bohemiancoding.com/sketch -->
    <title>关闭</title>
    <desc>Created with Sketch.</desc>
    <defs>
        <polygon id="path-1" points="9.97142857 0.000214285714 9.97142857 9.97121429 0 9.97121429 0 0.000214285714"></polygon>
    </defs>
    <g id="Page-1" stroke="none" stroke-width="1" fill="none" fill-rule="evenodd">
        <g id="OA办公2" transform="translate(-510.000000, -149.000000)">
            <g id="我的常用" transform="translate(170.000000, 80.000000)">
                <g id="关闭" transform="translate(340.000000, 69.000000)">
                    <circle id="Oval-4" fill-opacity="0.5" fill="#999999" cx="10" cy="10" r="10"></circle>
                    <g id="icon_关闭" transform="translate(5.000000, 5.000000)">
                        <mask id="mask-2" fill="white">
                            <use xlink:href="#path-1"></use>
                        </mask>
                        <g id="Clip-2"></g>
                        <path d="M5.42642857,4.98557143 L9.88,0.532 C10.0021429,0.410571429 10.0021429,0.212714286 9.88,0.0912857143 C9.75857143,-0.0301428571 9.56142857,-0.0301428571 9.43928571,0.0912857143 L4.98571429,4.54485714 L0.531428571,0.0912857143 C0.410714286,-0.0301428571 0.212857143,-0.0301428571 0.0914285714,0.0912857143 C-0.0307142857,0.212714286 -0.0307142857,0.410571429 0.0914285714,0.532 L4.545,4.98557143 L0.0914285714,9.43914286 C-0.0307142857,9.56128571 -0.0307142857,9.75842857 0.0914285714,9.87985714 C0.152142857,9.94057143 0.232857143,9.97128571 0.311428571,9.97128571 C0.392142857,9.97128571 0.471428571,9.94057143 0.531428571,9.87985714 L4.98571429,5.42628571 L9.43928571,9.87985714 C9.50071429,9.94057143 9.58071429,9.97128571 9.66,9.97128571 C9.74,9.97128571 9.81928571,9.94057143 9.88,9.87985714 C10.0021429,9.75842857 10.0021429,9.56128571 9.88,9.43914286 L5.42642857,4.98557143 Z" id="Fill-1" fill="#FFFFFF" mask="url(#mask-2)"></path>
                    </g>
                </g>
            </g>
        </g>
    </g>
</svg>