<?xml version="1.0" encoding="UTF-8"?>
<svg width="17px" height="17px" viewBox="0 0 17 17" version="1.1" xmlns="http://www.w3.org/2000/svg" xmlns:xlink="http://www.w3.org/1999/xlink">
    <!-- Generator: Sketch 50.2 (55047) - http://www.bohemiancoding.com/sketch -->
    <title>icon_可预租</title>
    <desc>Created with Sketch.</desc>
    <defs></defs>
    <g id="正式" stroke="none" stroke-width="1" fill="none" fill-rule="evenodd" stroke-linecap="round" stroke-linejoin="round">
        <g id="08，库存平面图-四期" transform="translate(-1002.000000, -224.000000)" fill="#4D5E7D" fill-rule="nonzero" stroke="#4D5E7D" stroke-width="0.7">
            <g id="icon_可预租" transform="translate(1003.000000, 225.106602)">
                <path d="M7.5003,0.6 C7.8414,0.6 8.1609,0.7371 8.3997,0.9855 L14.0868,6.9063 C14.4984,7.3347 14.3859,7.6068 14.385,7.6083 C14.3151,7.767 14.1834,7.8375 13.9587,7.8375 L13.125,7.8375 L12.525,7.8375 L12.525,8.4375 L12.525,12.9924 C12.525,13.6695 12.0672,14.4 11.3274,14.4 L10.3707,14.4 L9.5064,14.4 L9.5064,13.9299 L9.5064,10.1799 C9.5064,10.1214 9.5076,10.0662 9.5085,10.014 C9.5145,9.6978 9.5217,9.3393 9.2445,9.057 C8.9682,8.7753 8.5833,8.7753 8.4567,8.7753 L7.5,8.7753 L6.5433,8.7753 C6.4167,8.7753 6.0318,8.7753 5.7555,9.057 C5.4786,9.3393 5.4855,9.6981 5.4915,10.0143 C5.4924,10.0665 5.4936,10.1217 5.4936,10.1802 L5.4936,13.9302 L5.4936,14.4 L4.6293,14.4 L3.6726,14.4 C2.9328,14.4 2.475,13.6692 2.475,12.9924 L2.475,8.4375 L2.475,7.8375 L1.875,7.8375 L1.0419,7.8375 C0.8172,7.8375 0.6858,7.7667 0.6162,7.6089 C0.615,7.6062 0.5025,7.3347 0.9138,6.9063 L6.6009,0.9855 C6.84,0.7371 7.1592,0.6 7.5003,0.6 Z M6.1683,0.5697 L0.4812,6.4905 C-0.1056,7.1016 -0.03,7.6299 0.0669,7.8504 C0.1359,8.007 0.3696,8.4372 1.0419,8.4372 L1.8753,8.4372 L1.8753,12.9918 C1.8753,14.0262 2.6178,15 3.6729,15 L4.6296,15 L6.0939,15 L6.0939,13.9299 L6.0939,10.1799 C6.0939,9.6633 6.0156,9.3753 6.5436,9.3753 L7.5003,9.3753 L8.457,9.3753 C8.9847,9.3753 8.9064,9.6633 8.9064,10.1799 L8.9064,13.9299 L8.9064,15 L10.3707,15 L11.3274,15 C12.3825,15 13.125,14.0265 13.125,12.9924 L13.125,8.4375 L13.9584,8.4375 C14.631,8.4375 14.8644,8.0073 14.9334,7.8507 C15.0303,7.6299 15.1059,7.1019 14.5191,6.4905 L8.8323,0.5697 C8.4789,0.2022 8.0064,0 7.5003,0 C6.9942,0 6.5217,0.2022 6.1683,0.5697 Z" id="Shape"></path>
            </g>
        </g>
    </g>
</svg>