<?xml version="1.0" encoding="UTF-8"?>
<svg width="12px" height="12px" viewBox="0 0 12 12" version="1.1" xmlns="http://www.w3.org/2000/svg" xmlns:xlink="http://www.w3.org/1999/xlink">
    <!-- Generator: Sketch 45.2 (43514) - http://www.bohemiancoding.com/sketch -->
    <title>？</title>
    <desc>Created with Sketch.</desc>
    <defs></defs>
    <g id="02，APP管理" stroke="none" stroke-width="1" fill="none" fill-rule="evenodd">
        <g id="04，新建推送（自定义人员）" transform="translate(-284.000000, -555.000000)">
            <g id="02租赁信息" transform="translate(194.000000, 389.000000)">
                <g id="自定义人员下拉" transform="translate(14.000000, 66.000000)">
                    <g id="03入驻时长" transform="translate(16.000000, 96.000000)">
                        <g id="？" transform="translate(60.000000, 4.000000)">
                            <circle id="Oval-2" fill="#CCCCCC" cx="6" cy="6" r="6"></circle>
                            <path d="M6.085,2.36 C5.365,2.36 4.805,2.58 4.405,3.02 C4.005,3.44 3.815,4 3.815,4.7 L4.605,4.7 C4.605,4.21 4.715,3.83 4.935,3.55 C5.175,3.22 5.545,3.06 6.045,3.06 C6.465,3.06 6.795,3.17 7.025,3.41 C7.245,3.63 7.365,3.94 7.365,4.34 C7.365,4.62 7.265,4.88 7.065,5.13 C7.005,5.21 6.885,5.33 6.725,5.49 C6.185,5.97 5.855,6.35 5.715,6.65 C5.595,6.9 5.535,7.19 5.535,7.52 L5.535,7.75 L6.335,7.75 L6.335,7.52 C6.335,7.25 6.395,7.01 6.525,6.79 C6.625,6.61 6.775,6.43 6.995,6.24 C7.435,5.85 7.705,5.59 7.805,5.47 C8.055,5.14 8.185,4.75 8.185,4.3 C8.185,3.7 7.995,3.23 7.625,2.89 C7.235,2.53 6.725,2.36 6.085,2.36 Z M5.935,8.45 C5.765,8.45 5.625,8.5 5.505,8.62 C5.385,8.73 5.335,8.87 5.335,9.04 C5.335,9.21 5.385,9.35 5.505,9.47 C5.625,9.58 5.765,9.64 5.935,9.64 C6.105,9.64 6.245,9.58 6.365,9.47 C6.485,9.36 6.545,9.22 6.545,9.04 C6.545,8.87 6.485,8.73 6.375,8.62 C6.255,8.5 6.105,8.45 5.935,8.45 Z" fill="#FFFFFF"></path>
                        </g>
                    </g>
                </g>
            </g>
        </g>
    </g>
</svg>