<?xml version="1.0" encoding="UTF-8"?>
<svg width="16px" height="16px" viewBox="0 0 16 16" version="1.1" xmlns="http://www.w3.org/2000/svg" xmlns:xlink="http://www.w3.org/1999/xlink">
    <!-- Generator: Sketch 45.2 (43514) - http://www.bohemiancoding.com/sketch -->
    <title>icon_close</title>
    <desc>Created with Sketch.</desc>
    <defs></defs>
    <g id="Page-1" stroke="none" stroke-width="1" fill="none" fill-rule="evenodd">
        <g id="09，新建通知" transform="translate(-272.000000, -898.000000)">
            <g id="01基本信息" transform="translate(193.000000, 163.000000)">
                <g id="01推送标题" transform="translate(0.000000, 627.000000)">
                    <g id="icon_close" transform="translate(75.000000, 104.000000)">
                        <path d="M12,4 C7.582,4 4,7.582 4,12 C4,16.418 7.582,20 12,20 C16.418,20 20,16.418 20,12 C20,7.582 16.418,4 12,4 Z" id="Shape" fill-opacity="0.7" fill="#000000" fill-rule="nonzero" transform="translate(12.000000, 12.000000) rotate(-45.000000) translate(-12.000000, -12.000000) "></path>
                        <path d="M15.1111111,12.3888889 L12.3888889,12.3888889 L12.3888889,15.1111111 C12.3888889,15.3257778 12.2146667,15.5 12,15.5 C11.7853333,15.5 11.6111111,15.3257778 11.6111111,15.1111111 L11.6111111,12.3888889 L8.88888889,12.3888889 C8.67422222,12.3888889 8.5,12.2146667 8.5,12 C8.5,11.7853333 8.67422222,11.6111111 8.88888889,11.6111111 L11.6111111,11.6111111 L11.6111111,8.88888889 C11.6111111,8.67422222 11.7853333,8.5 12,8.5 C12.2146667,8.5 12.3888889,8.67422222 12.3888889,8.88888889 L12.3888889,11.6111111 L15.1111111,11.6111111 C15.3257778,11.6111111 15.5,11.7853333 15.5,12 C15.5,12.2146667 15.3257778,12.3888889 15.1111111,12.3888889 Z" id="Path" fill="#FFFFFF" transform="translate(12.000000, 12.000000) rotate(-45.000000) translate(-12.000000, -12.000000) "></path>
                    </g>
                </g>
            </g>
        </g>
    </g>
</svg>