<?xml version="1.0" encoding="UTF-8"?>
<svg width="17px" height="17px" viewBox="0 0 17 17" version="1.1" xmlns="http://www.w3.org/2000/svg" xmlns:xlink="http://www.w3.org/1999/xlink">
    <!-- Generator: Sketch 45.2 (43514) - http://www.bohemiancoding.com/sketch -->
    <title>统计</title>
    <desc>Created with Sketch.</desc>
    <defs></defs>
    <g id="正式" stroke="none" stroke-width="1" fill="none" fill-rule="evenodd">
        <g id="统计" transform="translate(0.078125, 0.531250)">
            <path d="M15.4282958,8.57168572 L7.99999384,8.57168572 C7.68425715,8.57168571 7.42830198,8.31573054 7.42830198,7.99999384 L7.42830198,0.571691875 C7.42830198,0.255999812 7.68430178,0 7.99999384,0 C12.410452,0 15.9999877,3.5895357 15.9999877,7.99999384 C15.9999877,8.31573054 15.7440325,8.57168571 15.4282958,8.57168572 L15.4282958,8.57168572 Z M8.57230109,7.42768659 L14.8338347,7.42768659 C14.5581427,4.10215069 11.897837,1.44184505 8.57230109,1.16615295 L8.57230109,7.42768659 Z" id="Shape" fill="#66CBFF" fill-rule="nonzero"></path>
            <path d="M7.99999384,15.9999877 C3.58830494,15.9999877 0,12.410452 0,7.99999384 C0,4.76245787 1.93046005,1.86399856 4.91753467,0.615999531 C5.10573105,0.53740116 5.3215634,0.56517484 5.48372977,0.688858495 C5.64589614,0.812542149 5.72975961,1.01334529 5.70372961,1.21562731 C5.67769961,1.41790934 5.54573072,1.5909388 5.35753434,1.66953717 C2.80142188,2.7328484 1.13781122,5.23154354 1.14276836,7.99999384 C1.14276836,11.7815294 4.2184583,14.8572193 7.99999384,14.8572193 C10.7685937,14.8620733 13.2673307,13.1981918 14.3304505,10.641838 C14.4585471,10.3619306 14.7854443,10.2339183 15.0695522,10.3524072 C15.35366,10.4708961 15.4927319,10.7932436 15.3839882,11.0812223 C14.1445989,14.0638071 11.2298342,16.0054452 7.99999384,15.9999877 L7.99999384,15.9999877 Z" id="Path" fill="#4E5F7D"></path>
        </g>
    </g>
</svg>