<?xml version="1.0" standalone="no"?><!DOCTYPE svg PUBLIC "-//W3C//DTD SVG 1.1//EN" "http://www.w3.org/Graphics/SVG/1.1/DTD/svg11.dtd"><svg t="1488527389452" class="icon" style="" viewBox="0 0 1024 1024" version="1.1" xmlns="http://www.w3.org/2000/svg" p-id="5003" xmlns:xlink="http://www.w3.org/1999/xlink" width="60" height="60"><defs><style type="text/css"></style></defs><path d="M511.911481 0c119.310828 0 227.089354 50.602018 305.336563 132.136472 146.093792 152.02161 167.272272 395.062186 51.464246 571.333965a436.018026 436.018026 0 0 1-192.438558 162.583906l-137.525398 146.417127a37.614705 37.614705 0 0 1-53.350371 0.538893l-0.538892-0.538893-0.269447-0.592782-136.986506-145.770456a430.467431 430.467431 0 0 1-191.953554-162.583906C39.302646 527.198658 60.481126 284.158083 206.574918 132.136472 284.876016 50.602018 392.654542 0 511.911481 0z m0 222.670434c59.763192 0 113.921902 25.435732 153.045506 66.229904a229.676038 229.676038 0 0 1 63.804887 159.781664 229.51437 229.51437 0 0 1-63.804887 159.512218 210.868685 210.868685 0 0 1-153.045506 66.499351 211.892581 211.892581 0 0 1-153.314953-66.499351 230.484377 230.484377 0 0 1-63.535441-159.512218c0-62.295988 24.411836-119.041382 63.535441-159.781664a212.70092 212.70092 0 0 1 153.314953-66.229904z m121.143063 99.749025a166.194487 166.194487 0 0 0-121.143063-52.811477c-47.422551 0-90.048958 20.100695-121.143063 52.811477a181.876262 181.876262 0 0 0-50.170904 126.262543c0 48.877561 19.292356 93.875096 50.117015 126.262543a168.026721 168.026721 0 0 0 121.143062 52.218696c47.476441 0 90.048958-20.100695 121.143063-52.218696 30.824658-32.441336 50.117014-77.384981 50.117015-126.262543a181.768484 181.768484 0 0 0-50.063125-126.262543z m130.573683-134.669267c-64.613226-67.307689-153.368842-108.964089-251.716746-108.96409-98.401794 0-187.642413 41.602511-251.986193 108.96409-120.60417 125.454204-138.064291 326.03004-42.087515 471.315492a355.345799 355.345799 0 0 0 163.500024 136.878728c5.388926 1.670567 10.185071 5.011701 14.226765 9.215064l116.346919 123.783637 116.077472-123.783637a52.272585 52.272585 0 0 1 13.095091-8.945618 355.076353 355.076353 0 0 0 165.17059-137.202063c95.707331-145.231563 77.762206-345.8074-42.626407-471.261603z" fill="#499DF1" p-id="5004"></path></svg>