<?xml version="1.0" encoding="utf-8"?>
<!-- Generator: Adobe Illustrator 21.0.0, SVG Export Plug-In . SVG Version: 6.00 Build 0)  -->
<svg version="1.1" id="图层_1" xmlns="http://www.w3.org/2000/svg" xmlns:xlink="http://www.w3.org/1999/xlink" x="0px" y="0px"
	 viewBox="0 0 16 16" style="enable-background:new 0 0 16 16;" xml:space="preserve">
<style type="text/css">
	.st0{fill:#979797;}
</style>
<path id="Path-3-Copy" class="st0" d="M4,12.3l-2.1-2.1c-0.4-0.4-1-0.4-1.4,0c-0.4,0.4-0.4,1,0,1.4l3.8,3.8C4.9,16.1,6,15.6,6,14.7
	V1.2c0-0.6-0.4-1-1-1s-1,0.4-1,1V12.3z"/>
<path id="Path-3" class="st0" d="M12,3.6L14,5.7c0.4,0.4,1,0.4,1.4,0c0.4-0.4,0.4-1,0-1.4l-3.8-3.8C11-0.1,10,0.3,10,1.2v13.5
	c0,0.6,0.4,1,1,1s1-0.4,1-1V3.6z"/>
</svg>
