<?xml version="1.0" encoding="UTF-8"?>
<svg width="16px" height="16px" viewBox="0 0 16 16" version="1.1" xmlns="http://www.w3.org/2000/svg" xmlns:xlink="http://www.w3.org/1999/xlink">
    <!-- Generator: Sketch 45.2 (43514) - http://www.bohemiancoding.com/sketch -->
    <title>daoxu</title>
    <desc>Created with Sketch.</desc>
    <defs></defs>
    <g id="正式" stroke="none" stroke-width="1" fill="none" fill-rule="evenodd">
        <g id="01_首页（列表视图）" transform="translate(-1295.000000, -178.000000)" fill-rule="nonzero">
            <g id="推送管理" transform="translate(-103.000000, 0.000000)">
                <g id="tab_tile" transform="translate(144.000000, 86.000000)">
                    <g id="Group-3" transform="translate(0.000000, 73.000000)">
                        <g id="Group-2" transform="translate(1083.000000, 15.000000)">
                            <g id="daoxu" transform="translate(171.076172, 4.000000)">
                                <path d="M2.11133225,3.63909569 L4.17375259,5.70151603 C4.56427689,6.09204033 5.19744186,6.09204033 5.58796616,5.70151603 C5.97849045,5.31099174 5.97849045,4.67782676 5.58796616,4.28730247 L1.81843903,0.517775342 C1.18847417,-0.112189519 0.111332246,0.333977273 0.111332246,1.22488212 L0.111332246,14.7353516 C0.111332246,15.2876363 0.559047496,15.7353516 1.11133225,15.7353516 C1.663617,15.7353516 2.11133225,15.2876363 2.11133225,14.7353516 L2.11133225,3.63909569 Z" id="Path-3-Copy" fill="#4F9EED" transform="translate(2.996096, 7.979114) rotate(-180.000000) translate(-2.996096, -7.979114) "></path>
                                <path d="M11.8808594,3.63909569 L13.9432797,5.70151603 C14.333804,6.09204033 14.966969,6.09204033 15.3574933,5.70151603 C15.7480176,5.31099174 15.7480176,4.67782676 15.3574933,4.28730247 L11.5879662,0.517775342 C10.9580013,-0.112189519 9.88085938,0.333977273 9.88085938,1.22488212 L9.88085938,14.7353516 C9.88085938,15.2876363 10.3285746,15.7353516 10.8808594,15.7353516 C11.4331441,15.7353516 11.8808594,15.2876363 11.8808594,14.7353516 L11.8808594,3.63909569 Z" id="Path-3" fill="#979797"></path>
                            </g>
                        </g>
                    </g>
                </g>
            </g>
        </g>
    </g>
</svg>