<?xml version="1.0" encoding="UTF-8"?>
<svg width="100px" height="118px" viewBox="0 0 100 118" version="1.1" xmlns="http://www.w3.org/2000/svg" xmlns:xlink="http://www.w3.org/1999/xlink">
    <!-- Generator: Sketch 45.2 (43514) - http://www.bohemiancoding.com/sketch -->
    <title>icon_账单</title>
    <desc>Created with Sketch.</desc>
    <defs>
        <polygon id="path-1" points="0.00914634146 0.0510670732 0.00914634146 114.938872 99.9022866 114.938872 99.9022866 0.0510670732"></polygon>
    </defs>
    <g id="07，客户中心" stroke="none" stroke-width="1" fill="none" fill-rule="evenodd">
        <g id="01，账户信息详情页_敬请期待" transform="translate(-986.000000, -291.000000)">
            <g id="icon_账单" transform="translate(986.000000, 291.000000)">
                <g id="Group-5" transform="translate(0.000000, 2.591463)">
                    <mask id="mask-2" fill="white">
                        <use xlink:href="#path-1"></use>
                    </mask>
                    <g id="Clip-2"></g>
                    <polygon id="Fill-3" fill="#DAE9FF" mask="url(#mask-2)" points="67.4339939 85.2179878 93.4088415 84.9684451 65.4362805 109.944055 62.4393293 97.9556402"></polygon>
                    <path d="M69.1823171,114.938872 L14.7353659,114.938872 C6.74359756,114.938872 0,108.195884 0,100.203506 L0,14.7870427 C0,6.79466463 6.74359756,0.0510670732 14.7353659,0.0510670732 L84.9169207,0.0510670732 C93.1592988,0.0510670732 99.9022866,6.79466463 99.9022866,14.7870427 L99.9022866,87.2164634 L69.1823171,114.938872 Z M14.7353659,7.54375 C10.7397866,7.54375 7.49268293,10.7908537 7.49268293,14.7870427 L7.49268293,99.9533537 C7.49268293,103.949543 10.7397866,107.196646 14.7353659,107.196646 L66.1853659,107.196646 L92.4096037,83.9693598 L92.4096037,14.7870427 C92.4096037,10.7908537 89.1631098,7.54375 85.1669207,7.54375 L14.7353659,7.54375 Z" id="Fill-1" fill="#3988FF" mask="url(#mask-2)"></path>
                    <path d="M69.1823171,114.938872 L14.7353659,114.938872 C6.74359756,114.938872 0,108.195884 0,100.203506 L0,14.7870427 C0,6.79466463 6.74359756,0.0510670732 14.7353659,0.0510670732 L84.9169207,0.0510670732 C93.1592988,0.0510670732 99.9022866,6.79466463 99.9022866,14.7870427 L99.9022866,87.2164634 L74.6772866,88.7146341 C71.6803354,88.9646341 69.1823171,91.4620427 69.1823171,94.4589939 L69.1823171,114.938872 Z M14.7353659,7.54375 C10.7397866,7.54375 7.49268293,10.7908537 7.49268293,14.7870427 L7.49268293,99.9533537 C7.49268293,103.949543 10.7397866,107.196646 14.7353659,107.196646 L61.6896341,107.196646 L61.6896341,94.4589939 C61.6896341,87.4658537 67.1844512,81.4719512 74.1775915,81.2217988 L92.4096037,80.2227134 L92.4096037,14.7870427 C92.4096037,10.7908537 89.1631098,7.54375 85.1669207,7.54375 L14.7353659,7.54375 Z" id="Fill-4" fill="#3988FF" mask="url(#mask-2)"></path>
                </g>
                <path d="M41.2097561,27.6181402 L20.9794207,27.6181402 C19.48125,27.6181402 18.4820122,26.6195122 18.4820122,25.1207317 C18.4820122,23.6219512 19.48125,22.6233232 20.9794207,22.6233232 L41.2097561,22.6233232 C42.7085366,22.6233232 43.7071646,23.6219512 43.7071646,25.1207317 C43.7071646,26.6195122 42.7085366,27.6181402 41.2097561,27.6181402 Z" id="Fill-6" fill="#3988FF"></path>
                <path d="M61.189939,12.6332317 L40.9602134,12.6332317 C37.7131098,12.6332317 34.9657012,9.88567073 34.9657012,6.38917683 C34.9657012,2.89253049 37.7131098,0.145121951 41.2097561,0.145121951 L61.4400915,0.145121951 C64.6865854,0.145121951 67.4339939,2.89253049 67.4339939,6.38917683 C67.4339939,9.88567073 64.6865854,12.6332317 61.189939,12.6332317 Z" id="Fill-7" fill="#DAE9FF"></path>
                <path d="M81.1707317,40.10625 L21.2295732,40.10625 C19.7307927,40.10625 18.7315549,39.1070122 18.7315549,37.6088415 C18.7315549,36.110061 19.7307927,35.1108232 21.2295732,35.1108232 L81.1707317,35.1108232 C82.6690549,35.1108232 83.6681402,36.110061 83.6681402,37.6088415 C83.6681402,39.1070122 82.4195122,40.10625 81.1707317,40.10625 Z M41.4592988,60.836128 C39.2118902,60.836128 37.4637195,59.0878049 37.4637195,56.839939 C37.4637195,54.5920732 39.2118902,52.84375 41.4592988,52.84375 C43.7071646,52.84375 45.4554878,54.5920732 45.4554878,56.839939 C45.4554878,59.0878049 43.9571646,60.836128 41.4592988,60.836128 Z M60.9405488,60.836128 C58.6925305,60.836128 56.9443598,59.0878049 56.9443598,56.839939 C56.9443598,54.5920732 58.6925305,52.84375 60.9405488,52.84375 C63.1884146,52.84375 64.9365854,54.5920732 64.9365854,56.839939 C64.9365854,59.0878049 63.1884146,60.836128 60.9405488,60.836128 Z M42.9580793,71.8254573 C42.9580793,70.3266768 44.2067073,69.0778963 45.7054878,69.0778963 C47.2036585,69.0778963 48.452439,70.3266768 48.452439,71.8254573 C48.452439,73.323628 49.7016768,74.5722561 51.1998476,74.5722561 C52.698628,74.5722561 53.9474085,73.323628 53.9474085,71.8254573 C53.9474085,70.3266768 55.1960366,69.0778963 56.6948171,69.0778963 C58.1929878,69.0778963 59.4417683,70.3266768 59.4417683,71.8254573 C59.4417683,76.3205793 55.6955793,80.0672256 51.1998476,80.0672256 C46.7041159,80.0672256 42.9580793,76.3205793 42.9580793,71.8254573 Z" id="Fill-8" fill="#3988FF"></path>
            </g>
        </g>
    </g>
</svg>