<?xml version="1.0" encoding="UTF-8"?>
<svg width="129px" height="120px" viewBox="0 0 129 120" version="1.1" xmlns="http://www.w3.org/2000/svg" xmlns:xlink="http://www.w3.org/1999/xlink">
    <!-- Generator: Sketch 45.2 (43514) - http://www.bohemiancoding.com/sketch -->
    <title>icon_会员</title>
    <desc>Created with Sketch.</desc>
    <defs></defs>
    <g id="07，客户中心" stroke="none" stroke-width="1" fill="none" fill-rule="evenodd">
        <g id="01，账户信息详情页_敬请期待" transform="translate(-1151.000000, -290.000000)" fill="#3988FF">
            <g id="icon_会员" transform="translate(1151.988281, 291.000000)">
                <path d="M126.034831,105.236969 C123.507626,94.6651793 115.947487,86.00988 105.811519,82.0841109 C116.546636,77.1118413 123.001995,65.9328137 121.942356,54.1496315 C120.882717,42.3664494 112.536444,32.5185038 101.086446,29.5412985 C96.3366032,12.1594957 80.5799763,0.0774525745 62.5610382,0.000354419542 C44.5421002,-0.0767437355 28.6826605,11.8700228 23.7842505,29.2105433 C11.1431768,31.2106107 1.45602722,41.5089369 0.232129175,54.2486028 C-0.991768871,66.9882687 6.55758014,78.942503 18.5866701,83.3126298 C9.27450462,87.6989446 2.50881714,96.1386167 0.253386757,106.181984 C-0.042411343,107.446935 0.73857051,108.713392 2.00166379,109.017027 L2.56867249,109.017027 C3.66318613,109.027115 4.62131038,108.28408 4.88395834,107.2215 C7.40058687,94.702664 18.2035877,85.5631686 30.9663615,85.1554083 L32.9508922,85.1554083 C22.9146297,92.4511508 15.7840911,103.063267 12.822081,115.112372 C12.6643198,115.720208 12.755045,116.365843 13.0742158,116.90666 C13.3933866,117.447477 13.9147385,117.838972 14.5231074,117.994666 L15.0901161,117.994666 C16.1846297,118.004754 17.142754,117.261719 17.4054019,116.199138 C22.4400711,95.4021067 40.9444508,80.6725425 62.3408467,80.4303353 C83.4792878,80.6809509 101.839749,95.0365488 107.18179,115.490377 C107.401244,116.33443 108.054324,116.99729 108.895023,117.229264 C109.735721,117.461238 110.636315,117.227084 111.257559,116.615005 C111.878804,116.002926 112.126317,115.105911 111.906863,114.261858 C108.752459,102.517206 101.62181,92.2303682 91.7308011,85.1554083 C92.9818281,84.9653622 94.2454804,84.8705883 95.5108595,84.871904 C108.067204,85.2612278 118.763521,94.1099989 121.498761,106.370986 C121.757166,107.416475 122.68991,108.154897 123.766796,108.166514 L124.333805,108.166514 C124.952755,108.011546 125.482706,107.612814 125.803096,107.061032 C126.123486,106.509249 126.20707,105.851337 126.034831,105.236969 L126.034831,105.236969 Z M28.8873295,80.4303353 C17.4270928,79.9756666 7.94885625,71.3557222 6.41168175,59.9899471 C4.87450725,48.6241721 11.7224892,37.7961736 22.650233,34.3136223 C19.9762218,51.143301 28.3434592,67.8017101 43.4405544,75.7052623 C39.2364257,78.8288134 34.1244931,80.4885317 28.8873295,80.4303353 L28.8873295,80.4303353 Z M62.3408467,75.7052623 C48.0074943,75.7052624 35.085496,67.0710592 29.6003595,53.8287683 C24.1152229,40.5864773 27.1471518,25.3439411 37.2823625,15.2087304 C47.4175732,5.07351965 62.6601094,2.04159066 75.9024004,7.52672716 C89.1446914,13.0118637 97.7788946,25.9338619 97.7788946,40.2672144 C97.7528651,59.8283159 81.9019482,75.6792328 62.3408467,75.7052623 L62.3408467,75.7052623 Z M93.3845766,80.1940817 C88.6825018,80.1849006 84.0850112,78.8056534 80.1543721,76.2250203 C95.7034415,68.6816282 104.574046,51.9345391 102.078711,34.8333803 C111.222015,38.2940607 117.289365,47.0287906 117.340697,56.80497 C117.278489,63.0874795 114.7164,69.0864565 110.220895,73.4755596 C105.725389,77.8646626 99.6667741,80.2823492 93.3845766,80.1940817 L93.3845766,80.1940817 Z" id="Shape" stroke="#3988FF" stroke-width="2" fill-rule="nonzero"></path>
                <path d="M93.0834459,24.1628906 L33.1422873,24.1628906 C31.6435069,24.1628906 30.6442691,23.1636528 30.6442691,21.6654821 C30.6442691,20.1667016 31.6435069,19.1674638 33.1422873,19.1674638 L93.0834459,19.1674638 C94.5817691,19.1674638 95.5808544,20.1667016 95.5808544,21.6654821 C95.5808544,23.1636528 94.3322264,24.1628906 93.0834459,24.1628906 Z M53.372013,44.8927687 C51.1246044,44.8927687 49.3764337,43.1444455 49.3764337,40.8965796 C49.3764337,38.6487138 51.1246044,36.9003906 53.372013,36.9003906 C55.6198788,36.9003906 57.368202,38.6487138 57.368202,40.8965796 C57.368202,43.1444455 55.8698788,44.8927687 53.372013,44.8927687 Z M72.853263,44.8927687 C70.6052447,44.8927687 68.8570739,43.1444455 68.8570739,40.8965796 C68.8570739,38.6487138 70.6052447,36.9003906 72.853263,36.9003906 C75.1011288,36.9003906 76.8492995,38.6487138 76.8492995,40.8965796 C76.8492995,43.1444455 75.1011288,44.8927687 72.853263,44.8927687 Z M54.8707934,55.8820979 C54.8707934,54.3833175 56.1194215,53.134537 57.618202,53.134537 C59.1163727,53.134537 60.3651532,54.3833175 60.3651532,55.8820979 C60.3651532,57.3802687 61.614391,58.6288967 63.1125617,58.6288967 C64.6113422,58.6288967 65.8601227,57.3802687 65.8601227,55.8820979 C65.8601227,54.3833175 67.1087508,53.134537 68.6075313,53.134537 C70.105702,53.134537 71.3544825,54.3833175 71.3544825,55.8820979 C71.3544825,60.3772199 67.6082934,64.1238662 63.1125617,64.1238662 C58.61683,64.1238662 54.8707934,60.3772199 54.8707934,55.8820979 Z" id="Fill-8"></path>
            </g>
        </g>
    </g>
</svg>