<?xml version="1.0" encoding="UTF-8"?>
<svg width="15px" height="15px" viewBox="0 0 15 15" version="1.1" xmlns="http://www.w3.org/2000/svg" xmlns:xlink="http://www.w3.org/1999/xlink">
    <!-- Generator: Sketch 50.2 (55047) - http://www.bohemiancoding.com/sketch -->
    <title>问号</title>
    <desc>Created with Sketch.</desc>
    <defs></defs>
    <g id="08，企业管理员设置" stroke="none" stroke-width="1" fill="none" fill-rule="evenodd">
        <g id="02，企业管理员设置-管理员" transform="translate(-1417.000000, -617.000000)" fill="#666666">
            <g id="关于管理员激活状态" transform="translate(1418.000000, 616.000000)">
                <g id="问号" transform="translate(0.000000, 2.000000)">
                    <path d="M6.5,13.5 C2.63400675,13.5 -0.5,10.3659932 -0.5,6.5 C-0.5,2.63400675 2.63400675,-0.5 6.5,-0.5 C10.3659932,-0.5 13.5,2.63400675 13.5,6.5 C13.5,10.3659932 10.3659932,13.5 6.5,13.5 Z M6.5,12.5 C9.8137085,12.5 12.5,9.8137085 12.5,6.5 C12.5,3.1862915 9.8137085,0.5 6.5,0.5 C3.1862915,0.5 0.5,3.1862915 0.5,6.5 C0.5,9.8137085 3.1862915,12.5 6.5,12.5 Z" id="Oval-4" fill-rule="nonzero"></path>
                    <path d="M6.59,2.72 C7.23,2.72 7.74,2.89 8.13,3.25 C8.5,3.59 8.69,4.06 8.69,4.66 C8.69,5.11 8.56,5.5 8.31,5.83 C8.21,5.95 7.94,6.21 7.5,6.6 C7.28,6.79 7.13,6.97 7.03,7.15 C6.9,7.37 6.84,7.61 6.84,7.88 L6.84,8.11 L6.04,8.11 L6.04,7.88 C6.04,7.55 6.1,7.26 6.22,7.01 C6.36,6.71 6.69,6.33 7.23,5.85 C7.39,5.69 7.51,5.57 7.57,5.49 C7.77,5.24 7.87,4.98 7.87,4.7 C7.87,4.3 7.75,3.99 7.53,3.77 C7.3,3.53 6.97,3.42 6.55,3.42 C6.05,3.42 5.68,3.58 5.44,3.91 C5.22,4.19 5.11,4.57 5.11,5.06 L4.32,5.06 C4.32,4.36 4.51,3.8 4.91,3.38 C5.31,2.94 5.87,2.72 6.59,2.72 Z M6.44,8.81 C6.61,8.81 6.76,8.86 6.88,8.98 C6.99,9.09 7.05,9.23 7.05,9.4 C7.05,9.58 6.99,9.72 6.87,9.83 C6.75,9.94 6.61,10 6.44,10 C6.27,10 6.13,9.94 6.01,9.83 C5.89,9.71 5.84,9.57 5.84,9.4 C5.84,9.23 5.89,9.09 6.01,8.98 C6.13,8.86 6.27,8.81 6.44,8.81 Z" id="？"></path>
                </g>
            </g>
        </g>
    </g>
</svg>