<?xml version="1.0" encoding="UTF-8"?>
<svg width="10px" height="6px" viewBox="0 0 10 6" version="1.1" xmlns="http://www.w3.org/2000/svg" xmlns:xlink="http://www.w3.org/1999/xlink">
    <!-- Generator: Sketch 45.2 (43514) - http://www.bohemiancoding.com/sketch -->
    <title>icon_收起</title>
    <desc>Created with Sketch.</desc>
    <defs></defs>
    <g id="01，已出帐单管理" stroke="none" stroke-width="1" fill="none" fill-rule="evenodd">
        <g id="06，账单详情" transform="translate(-1163.000000, -706.000000)" fill-rule="nonzero" fill="#499DF1">
            <g id="费用明细" transform="translate(192.000000, 397.000000)">
                <g id="展开" transform="translate(935.000000, 301.000000)">
                    <g id="icon_收起" transform="translate(41.000000, 11.000000) rotate(-180.000000) translate(-41.000000, -11.000000) translate(36.000000, 8.000000)">
                        <path d="M9.02466488,0.179821614 L4.96364953,4.54058611 L0.961203437,0.241346744 C0.82119971,0.0846575992 0.613237078,0.0215082347 0.417550437,0.0762625598 C0.221863796,0.131016885 0.0690454231,0.295114992 0.0180547871,0.505245534 C-0.0329358489,0.715376076 0.0258727704,0.938688716 0.171791456,1.08902631 L4.51292074,5.75058033 C4.52452677,5.7629936 4.53663424,5.77485428 4.54920823,5.78612819 C4.65288396,5.91572797 4.8021666,5.99307019 4.96115898,5.99955681 C5.12015136,6.00604343 5.27446883,5.94108757 5.38700353,5.82030881 L9.83253892,1.04800956 C9.97696545,0.892922725 10.0333704,0.666878726 9.98050666,0.455026155 C9.92764289,0.243173585 9.77354162,0.0776978909 9.57625132,0.0209321693 C9.37896102,-0.0358335523 9.16845477,0.0247347625 9.02402826,0.179821614 L9.02466488,0.179821614 Z" id="Shape"></path>
                    </g>
                </g>
            </g>
        </g>
    </g>
</svg>