<?xml version="1.0" encoding="UTF-8"?>
<svg width="14px" height="13px" viewBox="0 0 14 13" version="1.1" xmlns="http://www.w3.org/2000/svg" xmlns:xlink="http://www.w3.org/1999/xlink">
    <!-- Generator: Sketch 45.2 (43514) - http://www.bohemiancoding.com/sketch -->
    <title>Star_select</title>
    <desc>Created with Sketch.</desc>
    <defs>
        <linearGradient x1="127.727379%" y1="124.544271%" x2="-10.3952892%" y2="-6.97115385%" id="linearGradient-1">
            <stop stop-color="#FAD961" offset="0%"></stop>
            <stop stop-color="#F79C1C" offset="100%"></stop>
        </linearGradient>
    </defs>
    <g id="正式" stroke="none" stroke-width="1" fill="none" fill-rule="evenodd">
        <g id="05，项目开业进度" transform="translate(-52.000000, -544.000000)" fill="url(#linearGradient-1)">
            <path d="M58.1127044,555.319995 L56.4169202,556.159461 L56.4169202,556.159461 C55.7619079,556.483713 54.9680577,556.215579 54.643806,555.560566 C54.5175083,555.305436 54.476849,555.016379 54.527864,554.736307 L54.8022477,553.229946 L54.8022477,553.229946 C54.9253359,552.554194 54.6930445,551.862553 54.1870104,551.398095 L53,550.308611 L53,550.308611 C52.4809595,549.832216 52.4463889,549.025255 52.9227845,548.506215 C53.1238336,548.287169 53.395082,548.14523 53.6896621,548.104925 L55.5062472,547.856374 L55.5062472,547.856374 C56.1472369,547.768671 56.7062103,547.376325 57.0065519,546.803303 L57.763932,545.358296 L57.763932,545.358296 C58.1217395,544.675635 58.9652062,544.412289 59.6478677,544.770096 C59.8991684,544.901812 60.1043523,545.106996 60.236068,545.358296 L60.9934481,546.803303 L60.9934481,546.803303 C61.2937897,547.376325 61.8527631,547.768671 62.4937528,547.856374 L64.3103379,548.104925 L64.3103379,548.104925 C65.0083597,548.200431 65.4967955,548.843712 65.4012898,549.541734 C65.3609844,549.836314 65.2190462,550.107562 65,550.308611 L63.8129896,551.398095 L63.8129896,551.398095 C63.3069555,551.862553 63.0746641,552.554194 63.1977523,553.229946 L63.472136,554.736307 L63.472136,554.736307 C63.60311,555.455353 63.1263841,556.144429 62.4073389,556.275403 C62.1272671,556.326418 61.8382104,556.285759 61.5830798,556.159461 L59.8872956,555.319995 L59.8872956,555.319995 C59.3281458,555.043198 58.6718542,555.043198 58.1127044,555.319995 Z" id="Star_select"></path>
        </g>
    </g>
</svg>