<?xml version="1.0" encoding="UTF-8"?>
<svg width="14px" height="13px" viewBox="0 0 14 13" version="1.1" xmlns="http://www.w3.org/2000/svg" xmlns:xlink="http://www.w3.org/1999/xlink">
    <!-- Generator: Sketch 45.2 (43514) - http://www.bohemiancoding.com/sketch -->
    <title>Star</title>
    <desc>Created with Sketch.</desc>
    <defs></defs>
    <g id="正式" stroke="none" stroke-width="1" fill="none" fill-rule="evenodd">
        <g id="05，项目开业进度" transform="translate(-52.000000, -588.000000)" stroke="#999999">
            <path d="M57.8908805,598.871894 C58.5898177,598.525898 59.4101823,598.525898 60.1091195,598.871894 L61.8049037,599.711361 C61.9636399,599.78994 62.1434842,599.815238 62.3177382,599.783497 C62.7651111,599.702008 63.0617187,599.273281 62.9802297,598.825908 L62.7058461,597.319546 C62.5519859,596.474856 62.84235,595.610306 63.4748928,595.029734 L64.6619031,593.940249 C64.795093,593.818002 64.8813978,593.653071 64.9059053,593.473953 C64.963977,593.049525 64.6669862,592.658381 64.2425577,592.600309 L62.4259726,592.351758 C61.6247355,592.24213 60.9260187,591.751698 60.5505918,591.03542 L59.7932116,589.590413 C59.7086868,589.429148 59.5770159,589.297477 59.4157508,589.212952 C58.9776721,588.98334 58.4364012,589.152335 58.2067884,589.590413 L57.4494082,591.03542 C57.0739813,591.751698 56.3752645,592.24213 55.5740274,592.351758 L53.7574423,592.600309 C53.5783244,592.624817 53.4133932,592.711122 53.2911464,592.844312 C53.0014766,593.159911 53.022497,593.650579 53.3380969,593.940249 L54.5251072,595.029734 C55.15765,595.610306 55.4480141,596.474856 55.2941539,597.319546 L55.0197703,598.825908 C54.9880299,599.000162 55.0133271,599.180006 55.0919066,599.338743 C55.2936483,599.746276 55.7875632,599.913103 56.1950963,599.711361 L57.8908805,598.871894 Z" id="Star"></path>
        </g>
    </g>
</svg>