<?xml version="1.0" standalone="no"?><!DOCTYPE svg PUBLIC "-//W3C//DTD SVG 1.1//EN" "http://www.w3.org/Graphics/SVG/1.1/DTD/svg11.dtd"><svg t="1524121939602" class="icon" style="" viewBox="0 0 1024 1024" version="1.1" xmlns="http://www.w3.org/2000/svg" p-id="13243" xmlns:xlink="http://www.w3.org/1999/xlink" width="32" height="32"><defs><style type="text/css"></style></defs><path d="M512 739.555556C637.675463 739.555556 739.555556 637.675463 739.555556 512 739.555556 386.324537 637.675463 284.444444 512 284.444444 386.324537 284.444444 284.444444 386.324537 284.444444 512 284.444444 637.675463 386.324537 739.555556 512 739.555556ZM512 995.555556C779.060361 995.555556 995.555556 779.060361 995.555556 512 995.555556 244.939641 779.060361 28.444444 512 28.444444 244.939639 28.444444 28.444444 244.939641 28.444444 512 28.444444 779.060361 244.939639 995.555556 512 995.555556L512 995.555556ZM512 938.666667C276.358508 938.666667 85.333333 747.641492 85.333333 512 85.333333 276.358507 276.358508 85.333333 512 85.333333 747.641492 85.333333 938.666667 276.358507 938.666667 512 938.666667 747.641492 747.641492 938.666667 512 938.666667L512 938.666667Z" fill="#499DF1" p-id="13244"></path></svg>