<?xml version="1.0" standalone="no"?><!DOCTYPE svg PUBLIC "-//W3C//DTD SVG 1.1//EN" "http://www.w3.org/Graphics/SVG/1.1/DTD/svg11.dtd"><svg t="1521201215335" class="icon" style="" viewBox="0 0 1024 1024" version="1.1" xmlns="http://www.w3.org/2000/svg" p-id="8787" xmlns:xlink="http://www.w3.org/1999/xlink" width="32" height="32"><defs><style type="text/css"></style></defs><path d="M1024 729.054c1.0408340855860843e-17 0.033 2.0816681711721685e-17 0.07099999999999998 3.469446951953614e-17 0.10999999999999999 2.6645352591003757e-15 9.518-3.3839999999999923 18.244-9.012999999999993 25.043999999999997-6.841999999999997 8.407000000000002-17.269999999999996 13.776000000000005-28.951999999999998 13.776000000000003-9.396999999999998 2.6645352591003757e-15-17.982-3.473999999999994-24.542-9.207l-458.9600000000001-412.88599999999997-440.18699999999984 411.0680000000002c-6.497999999999997 5.632000000000002-15.036999999999999 9.064000000000007-24.376999999999992 9.064000000000007-11.750999999999998 3.552713678800501e-15-22.231-5.430999999999996-29.071000000000005-13.919999999999991-5.562000000000002-6.828999999999997-8.898000000000003-15.545999999999996-8.898000000000007-25.041999999999994-5.329070518200751e-15-11.927 5.263999999999998-22.628 13.594999999999992-29.901000000000003l464.7459999999997-432.0350000000002c6.493999999999998-5.646000000000002 15.033999999999999-9.086000000000004 24.378999999999998-9.086000000000007 9.379-2.6645352591003757e-15 17.948 3.465999999999995 24.496 9.187999999999994l483.2780000000001 434.00599999999974c8.294000000000004 7.253999999999998 13.504000000000005 17.856999999999992 13.504000000000007 29.67599999999999 2.0816681711721685e-17 0.05199999999999999 2.7755575615628914e-17 0.10499999999999998 5.551115123125783e-17 0.156z" fill="#499df1" p-id="8788"></path></svg>