<?xml version="1.0" encoding="UTF-8"?>
<svg width="14px" height="16px" viewBox="0 0 14 16" version="1.1" xmlns="http://www.w3.org/2000/svg" xmlns:xlink="http://www.w3.org/1999/xlink">
    <!-- Generator: Sketch 45.2 (43514) - http://www.bohemiancoding.com/sketch -->
    <title>icon编辑</title>
    <desc>Created with Sketch.</desc>
    <defs></defs>
    <g id="Page-1" stroke="none" stroke-width="1" fill="none" fill-rule="evenodd">
        <g id="04，项目开业进度（时间刻度月）" transform="translate(-260.000000, -387.000000)" fill-rule="nonzero" fill="#979797">
            <g id="icon编辑" transform="translate(267.787298, 397.610184) rotate(-315.000000) translate(-267.787298, -397.610184) translate(261.287298, 388.610184)">
                <path d="M5.28913762,11.4014875 L5.28913762,2 C5.28913762,1.17157288 4.61756474,0.5 3.78913762,0.5 L2,0.5 C1.17157288,0.5 0.5,1.17157288 0.5,2 L0.5,11.3930943 L2.9703208,14.2706468 L5.28913762,11.4014875 Z M2,-0.5 L3.78913762,-0.5 C5.16984949,-0.5 6.28913762,0.619288125 6.28913762,2 L6.28913762,11.5782752 C6.28913762,11.6926639 6.24991544,11.803594 6.17801419,11.8925602 L3.37079125,15.3660427 C3.17447345,15.6089541 2.80597783,15.6144237 2.60253712,15.3774458 L-0.379377566,11.9039632 C-0.457209258,11.813301 -0.5,11.6977634 -0.5,11.5782752 L-0.5,2 C-0.5,0.619288125 0.619288125,-0.5 2,-0.5 Z" id="Rectangle-7"></path>
                <polygon id="Line-3" points="-0.210543119 11.7888184 5.99968074 11.7888184 5.99968074 10.7888184 -0.210543119 10.7888184"></polygon>
                <path d="M4.93839196,17.697647 L13.0719758,9.56406321 C13.2672379,9.36880107 13.2672379,9.05221858 13.0719758,8.85695643 C12.8767136,8.66169428 12.5601311,8.66169428 12.364869,8.85695643 L4.23128518,16.9905402 C4.03602304,17.1858024 4.03602304,17.5023849 4.23128518,17.697647 C4.42654733,17.8929092 4.74312982,17.8929092 4.93839196,17.697647 Z" id="Line-4"></path>
            </g>
        </g>
    </g>
</svg>