<?xml version="1.0" standalone="no"?><!DOCTYPE svg PUBLIC "-//W3C//DTD SVG 1.1//EN" "http://www.w3.org/Graphics/SVG/1.1/DTD/svg11.dtd"><svg t="1524729438462" class="icon" style="" viewBox="0 0 1024 1024" version="1.1" xmlns="http://www.w3.org/2000/svg" p-id="6544" xmlns:xlink="http://www.w3.org/1999/xlink" width="200" height="200"><defs><style type="text/css"></style></defs><path d="M556.521739 473.933913v-222.608696a44.521739 44.521739 0 0 0-89.043478 0v222.608696H244.869565a44.521739 44.521739 0 0 0 0 89.043478h222.608696v222.608696a44.521739 44.521739 0 0 0 89.043478 0v-222.608696h222.608696a44.521739 44.521739 0 0 0 0-89.043478h-222.608696z m-44.521739 534.26087c-270.469565 0-489.73913-219.269565-489.73913-489.739131s219.269565-489.73913 489.73913-489.73913 489.73913 219.269565 489.73913 489.73913-219.269565 489.73913-489.73913 489.739131z" fill="#4A90E2" p-id="6545"></path></svg>