<?xml version="1.0" standalone="no"?><!DOCTYPE svg PUBLIC "-//W3C//DTD SVG 1.1//EN" "http://www.w3.org/Graphics/SVG/1.1/DTD/svg11.dtd"><svg t="1524746981610" class="icon" style="" viewBox="0 0 1024 1024" version="1.1" xmlns="http://www.w3.org/2000/svg" p-id="7319" xmlns:xlink="http://www.w3.org/1999/xlink" width="200" height="200"><defs><style type="text/css"></style></defs><path d="M880.64 676.78208v204.8a40.96 40.96 0 0 1-40.96 40.96H184.32a40.96 40.96 0 0 1-40.96-40.96v-204.8a40.96 40.96 0 0 0-81.92 0v204.8a122.88 122.88 0 0 0 122.88 122.88h655.36a122.88 122.88 0 0 0 122.88-122.88v-204.8a40.96 40.96 0 0 0-81.92 0z" fill="#999999" p-id="7320"></path><path d="M512 21.42208a40.96 40.96 0 0 1 40.96 40.96v491.52a40.96 40.96 0 1 1-81.92 0v-491.52a40.96 40.96 0 0 1 40.96-40.96z" fill="#999999" p-id="7321"></path><path d="M715.81696 484.27008l-184.9344 184.9344a25.14944 25.14944 0 0 1-35.59424 0L308.18304 482.0992a40.96 40.96 0 1 0-57.91744 57.91744l187.10528 187.14624a107.06944 107.06944 0 0 0 151.42912 0l184.9344-184.97536a40.96 40.96 0 1 0-57.91744-57.91744z" fill="#999999" p-id="7322"></path></svg>