<?xml version="1.0" standalone="no"?><!DOCTYPE svg PUBLIC "-//W3C//DTD SVG 1.1//EN" "http://www.w3.org/Graphics/SVG/1.1/DTD/svg11.dtd"><svg t="1524659894286" class="icon" style="" viewBox="0 0 1024 1024" version="1.1" xmlns="http://www.w3.org/2000/svg" p-id="11804" xmlns:xlink="http://www.w3.org/1999/xlink" width="200" height="200"><defs><style type="text/css"></style></defs><path d="M808.357647 289.249882a15.058824 15.058824 0 0 0 0-21.263058L639.457882 99.087059a15.058824 15.058824 0 0 0-21.323294 0L227.568941 489.652706l-40.719059 249.494588 220.340706-48.730353 401.167059-401.167059zM703.367529 35.177412l168.83953 168.899764a105.411765 105.411765 0 0 1 0 149.082353l-410.443294 410.50353a45.176471 45.176471 0 0 1-22.226824 12.167529l-298.285176 65.897412a45.176471 45.176471 0 0 1-54.332236-51.380706l53.850353-329.607529a45.176471 45.176471 0 0 1 12.649412-24.696471L554.224941 35.237647a105.411765 105.411765 0 0 1 149.082353 0zM149.865412 1009.061647a45.176471 45.176471 0 0 1 0-90.352941H902.324706a45.176471 45.176471 0 0 1 0 90.352941H149.985882z" fill="#4F9EED" p-id="11805"></path><path d="M270.817882 382.132706l242.56753 242.507294 63.849412-63.849412-242.507295-242.567529z" fill="#4F9EED" p-id="11806"></path></svg>