<?xml version="1.0" standalone="no"?><!DOCTYPE svg PUBLIC "-//W3C//DTD SVG 1.1//EN" "http://www.w3.org/Graphics/SVG/1.1/DTD/svg11.dtd"><svg t="1524745284066" class="icon" style="" viewBox="0 0 1024 1024" version="1.1" xmlns="http://www.w3.org/2000/svg" p-id="6653" xmlns:xlink="http://www.w3.org/1999/xlink" width="200" height="200"><defs><style type="text/css"></style></defs><path d="M576.852693 99.242667V22.314667h85.12a42.666667 42.666667 0 0 1 27.605334 10.154666l255.36 216.704a42.666667 42.666667 0 0 1 15.061333 32.512V875.648a128 128 0 0 1-128 128H191.99936a128 128 0 0 1-128-128V150.314667a128 128 0 0 1 128-128h255.573333v85.333333H191.99936a42.666667 42.666667 0 0 0-42.666667 42.666667v725.333333a42.666667 42.666667 0 0 0 42.666667 42.666667h640a42.666667 42.666667 0 0 0 42.666667-42.666667V363.648h-170.666667a128 128 0 0 1-128-128V107.648c0-2.858667 0.298667-5.674667 0.853333-8.405333zM847.35936 278.314667L661.332693 120.405333V235.648a42.666667 42.666667 0 0 0 42.666667 42.666667h143.402667zM250.922027 407.637333h80.64l65.621333 223.146667 71.253333-223.146667H517.11936l69.973333 221.269334 66.261334-221.269334h80.64l-119.381334 392.533334h-52.48L492.79936 576.981333l-72.533333 223.146667h-51.2l-118.186667-392.533333z" fill="#ffffff" p-id="6654"></path><path d="M447.99936 64.981333m-42.666667 0a42.666667 42.666667 0 1 0 85.333334 0 42.666667 42.666667 0 1 0-85.333334 0Z" fill="#ffffff" p-id="6655"></path></svg>