<?xml version="1.0" standalone="no"?><!DOCTYPE svg PUBLIC "-//W3C//DTD SVG 1.1//EN" "http://www.w3.org/Graphics/SVG/1.1/DTD/svg11.dtd"><svg t="1524745311882" class="icon" style="" viewBox="0 0 1024 1024" version="1.1" xmlns="http://www.w3.org/2000/svg" p-id="7018" xmlns:xlink="http://www.w3.org/1999/xlink" width="200" height="200"><defs><style type="text/css"></style></defs><path d="M447.572693 22.314667H447.99936a42.666667 42.666667 0 1 1-0.426667 85.333333H191.99936a42.666667 42.666667 0 0 0-42.666667 42.666667v725.333333a42.666667 42.666667 0 0 0 42.666667 42.666667h640a42.666667 42.666667 0 0 0 42.666667-42.666667V364.16h-169.898667a128 128 0 0 1-128-128v-128l0.042667-2.176V22.357333h85.162666a42.666667 42.666667 0 0 1 27.605334 10.112l255.36 216.746667a42.666667 42.666667 0 0 1 15.061333 32.512v593.92a128 128 0 0 1-128 128H191.99936a128 128 0 0 1-128-128v-725.333333a128 128 0 0 1 128-128h255.573333z m400.384 256.512l-185.856-157.738667v115.072a42.666667 42.666667 0 0 0 42.666667 42.666667h143.189333zM334.292693 407.04h104.362667l69.376 107.52 71.253333-107.52h103.125334l-122.496 186.24 137.514666 206.890667h-103.765333l-85.632-129.365334-83.754667 129.365334H321.79136l134.997333-206.890667L334.292693 407.04z" fill="#ffffff" p-id="7019"></path></svg>