<?xml version="1.0" standalone="no"?><!DOCTYPE svg PUBLIC "-//W3C//DTD SVG 1.1//EN" "http://www.w3.org/Graphics/SVG/1.1/DTD/svg11.dtd"><svg t="1524745322534" class="icon" style="" viewBox="0 0 1024 1024" version="1.1" xmlns="http://www.w3.org/2000/svg" p-id="7167" xmlns:xlink="http://www.w3.org/1999/xlink" width="200" height="200"><defs><style type="text/css"></style></defs><path d="M646.314667 107.648L874.666667 301.44V875.648a42.666667 42.666667 0 0 1-42.666667 42.666667H192a42.666667 42.666667 0 0 1-42.666667-42.666667V150.314667a42.666667 42.666667 0 0 1 42.666667-42.666667h255.573333V22.314667H192a128 128 0 0 0-128 128v725.333333a128 128 0 0 0 128 128h640a128 128 0 0 0 128-128V281.728a42.666667 42.666667 0 0 0-15.061333-32.554667L689.578667 32.426667A42.666667 42.666667 0 0 0 661.973333 22.314667h-85.162666v85.333333h69.504z" fill="#ffffff" p-id="7168"></path><path d="M875.434667 278.784h-170.666667a42.666667 42.666667 0 0 1-42.666667-42.666667v-128a42.666667 42.666667 0 1 0-85.333333 0v128a128 128 0 0 0 128 128h170.666667a42.666667 42.666667 0 1 0 0-85.333333z" fill="#ffffff" p-id="7169"></path><path d="M448 64.981333m-42.666667 0a42.666667 42.666667 0 1 0 85.333334 0 42.666667 42.666667 0 1 0-85.333334 0Z" fill="#ffffff" p-id="7170"></path><path d="M444.373333 396.8v31.402667c12.245333-13.013333 25.898667-22.741333 40.874667-29.226667a119.168 119.168 0 0 1 47.957333-9.770667c36.821333 0 68.266667 14.165333 94.250667 42.538667 25.984 28.330667 38.997333 64.554667 38.997333 108.586667 0 42.624-13.397333 78.293333-40.106666 106.965333-26.709333 28.714667-58.325333 43.093333-94.805334 43.093333-16.597333 0-31.829333-2.901333-45.738666-8.661333-13.909333-5.802667-27.733333-15.36-41.429334-28.714667v134.826667H373.333333V396.842667h70.997334z m74.197334 59.050667c-22.4 0-40.96 7.68-55.808 23.04-14.805333 15.317333-22.186667 35.626667-22.186667 60.885333 0 24.917333 7.381333 45.226667 22.186667 60.970667 14.805333 15.701333 33.408 23.552 55.808 23.552 21.674667 0 39.893333-7.936 54.698666-23.850667 14.805333-15.872 22.186667-36.096 22.186667-60.672 0-24.917333-7.210667-45.141333-21.632-60.629333-14.464-15.530667-32.853333-23.296-55.253333-23.296z" fill="#ffffff" p-id="7171"></path></svg>