<?xml version="1.0" standalone="no"?><!DOCTYPE svg PUBLIC "-//W3C//DTD SVG 1.1//EN" "http://www.w3.org/Graphics/SVG/1.1/DTD/svg11.dtd"><svg t="1524745300958" class="icon" style="" viewBox="0 0 1024 1024" version="1.1" xmlns="http://www.w3.org/2000/svg" p-id="6869" xmlns:xlink="http://www.w3.org/1999/xlink" width="200" height="200"><defs><style type="text/css"></style></defs><path d="M447.572693 22.314667H447.99936a42.666667 42.666667 0 1 1-0.426667 85.333333H191.99936a42.666667 42.666667 0 0 0-42.666667 42.666667v725.333333a42.666667 42.666667 0 0 0 42.666667 42.666667h640a42.666667 42.666667 0 0 0 42.666667-42.666667v-512h-170.666667a128 128 0 0 1-128-128v-128c0-2.858667 0.298667-5.674667 0.853333-8.362667V22.314667h85.12a42.666667 42.666667 0 0 1 27.605334 10.154666l255.36 216.746667a42.666667 42.666667 0 0 1 15.061333 32.512v593.92a128 128 0 0 1-128 128H191.99936a128 128 0 0 1-128-128v-725.333333a128 128 0 0 1 128-128h255.573333z m399.829334 256L661.332693 120.448v115.2a42.666667 42.666667 0 0 0 42.666667 42.666667h143.402667zM277.332693 363.648a42.666667 42.666667 0 1 1 0-85.333333h170.666667a42.666667 42.666667 0 1 1 0 85.333333H277.332693z m0 170.666667a42.666667 42.666667 0 0 1 0-85.333334h426.666667a42.666667 42.666667 0 0 1 0 85.333334H277.332693z m0 170.666666a42.666667 42.666667 0 0 1 0-85.333333h426.666667a42.666667 42.666667 0 0 1 0 85.333333H277.332693z" fill="#ffffff" p-id="6870"></path></svg>