<?xml version="1.0" standalone="no"?><!DOCTYPE svg PUBLIC "-//W3C//DTD SVG 1.1//EN" "http://www.w3.org/Graphics/SVG/1.1/DTD/svg11.dtd"><svg t="1524659945382" class="icon" style="" viewBox="0 0 1024 1024" version="1.1" xmlns="http://www.w3.org/2000/svg" p-id="11914" xmlns:xlink="http://www.w3.org/1999/xlink" width="200" height="200"><defs><style type="text/css"></style></defs><path d="M847.473778 389.518222L604.444444 127.431111H191.544889a28.444444 28.444444 0 0 0-28.444445 28.444445v722.488888a28.444444 28.444444 0 0 0 28.444445 28.444445h627.484444a28.444444 28.444444 0 0 0 28.444445-28.444445V389.518222zM191.544889 42.097778h450.161778l291.100444 313.969778v522.296888a113.777778 113.777778 0 0 1-113.777778 113.777778H191.544889a113.777778 113.777778 0 0 1-113.777778-113.777778V155.875556a113.777778 113.777778 0 0 1 113.777778-113.777778z m171.008 413.752889h296.96a42.666667 42.666667 0 0 0 0-85.333334h-296.96a42.666667 42.666667 0 1 0 0 85.333334z m0 260.039111h296.96a42.666667 42.666667 0 0 0 0-85.333334h-296.96a42.666667 42.666667 0 0 0 0 85.333334z" fill="#4F9EED" p-id="11915"></path></svg>