<?xml version="1.0" standalone="no"?><!DOCTYPE svg PUBLIC "-//W3C//DTD SVG 1.1//EN" "http://www.w3.org/Graphics/SVG/1.1/DTD/svg11.dtd"><svg t="1524659967100" class="icon" style="" viewBox="0 0 1024 1024" version="1.1" xmlns="http://www.w3.org/2000/svg" p-id="12132" xmlns:xlink="http://www.w3.org/1999/xlink" width="200" height="200"><defs><style type="text/css"></style></defs><path d="M88.2688 15.496533L7.509333 83.490133c143.9744 107.52 278.1184 230.8096 395.946667 354.0992-180.497067 181.998933-322.013867 360.994133-396.4928 433.015467l153.873067 128.682667c54.749867-112.913067 173.602133-283.989333 332.868266-463.530667 159.3344 180.497067 278.664533 352.597333 333.4144 465.988267 0 0 149.9136-159.266133 163.157334-134.621867-57.685333-65.058133-198.656-254.429867-388.027734-448.238933 108.475733-111.479467 230.263467-221.934933 360.448-319.0784l-35.498666-66.082134c-147.456 73.454933-288.017067 182.4768-414.242134 298.325334C385.6384 211.217067 241.664 96.324267 88.2688 15.496533z" fill="#F54E4E" p-id="12133"></path></svg>