<?xml version="1.0" encoding="UTF-8"?>
<svg width="16px" height="16px" viewBox="0 0 16 16" version="1.1" xmlns="http://www.w3.org/2000/svg" xmlns:xlink="http://www.w3.org/1999/xlink">
    <!-- Generator: Sketch 45.2 (43514) - http://www.bohemiancoding.com/sketch -->
    <title>问号</title>
    <desc>Created with Sketch.</desc>
    <defs></defs>
    <g id="正式" stroke="none" stroke-width="1" fill="none" fill-rule="evenodd">
        <g id="搜索内容" transform="translate(-267.000000, -10.046875)">
            <g id="库存日期" transform="translate(1.000000, 0.000000)">
                <g id="问号" transform="translate(267.000000, 11.000000)">
                    <path d="M7,14.5 C2.85786438,14.5 -0.5,11.1421356 -0.5,7 C-0.5,2.85786438 2.85786438,-0.5 7,-0.5 C11.1421356,-0.5 14.5,2.85786438 14.5,7 C14.5,11.1421356 11.1421356,14.5 7,14.5 Z M7,13.5 C10.5898509,13.5 13.5,10.5898509 13.5,7 C13.5,3.41014913 10.5898509,0.5 7,0.5 C3.41014913,0.5 0.5,3.41014913 0.5,7 C0.5,10.5898509 3.41014913,13.5 7,13.5 Z" id="Oval-2" fill="#DFDFDF" fill-rule="nonzero"></path>
                    <path d="M7.096,2.264 C7.84800376,2.264 8.45199772,2.47999784 8.908,2.912 C9.34000216,3.32000204 9.556,3.87199652 9.556,4.568 C9.556,5.07200252 9.40400152,5.523998 9.1,5.924 C8.9799994,6.07600076 8.66400256,6.38399768 8.152,6.848 C7.87999864,7.0880012 7.68000064,7.31599892 7.552,7.532 C7.38399916,7.82000144 7.3,8.12799836 7.3,8.456 L7.3,8.804 L6.568,8.804 L6.568,8.456 C6.568,8.10399824 6.63999928,7.78400144 6.784,7.496 C6.96000088,7.11199808 7.3279972,6.67600244 7.888,6.188 C8.19200152,5.88399848 8.37599968,5.6920004 8.44,5.612 C8.69600128,5.28399836 8.824,4.94400176 8.824,4.592 C8.824,4.08799748 8.67600148,3.68000156 8.38,3.368 C8.07599848,3.06399848 7.63600288,2.912 7.06,2.912 C6.4199968,2.912 5.93600164,3.12799784 5.608,3.56 C5.31999856,3.9200018 5.176,4.41599684 5.176,5.048 L4.456,5.048 C4.456,4.247996 4.6759978,3.59200256 5.116,3.08 C5.58800236,2.53599728 6.24799576,2.264 7.096,2.264 Z M6.94,9.8 C7.11600088,9.8 7.25999944,9.85599944 7.372,9.968 C7.4920006,10.0720005 7.552,10.2159991 7.552,10.4 C7.552,10.5680008 7.4920006,10.7119994 7.372,10.832 C7.24399936,10.9440006 7.1000008,11 6.94,11 C6.76399912,11 6.6160006,10.9400006 6.496,10.82 C6.38399944,10.7079994 6.328,10.5680008 6.328,10.4 C6.328,10.2159991 6.38399944,10.0720005 6.496,9.968 C6.60800056,9.85599944 6.75599908,9.8 6.94,9.8 Z" id="？" fill="#666666"></path>
                </g>
            </g>
        </g>
    </g>
</svg>