<?xml version="1.0" standalone="no"?><!DOCTYPE svg PUBLIC "-//W3C//DTD SVG 1.1//EN" "http://www.w3.org/Graphics/SVG/1.1/DTD/svg11.dtd"><svg t="1490582187682" class="icon" style="" viewBox="0 0 1024 1024" version="1.1" xmlns="http://www.w3.org/2000/svg" p-id="6013" xmlns:xlink="http://www.w3.org/1999/xlink" width="60" height="60"><defs><style type="text/css"></style></defs><path d="M514.884096 244.866783a26.553362 26.553362 0 0 0-26.553361 26.553362v390.174456L386.724136 560.115971a26.553362 26.553362 0 0 0-37.55861 37.55861l146.907273 146.84329a26.489378 26.489378 0 0 0 37.622594 0l146.907274-146.84329a26.553362 26.553362 0 0 0-37.558611-37.55861L541.437458 661.594601V271.420145a26.553362 26.553362 0 0 0-26.553362-26.553362z m337.707573 549.238691a398.812297 398.812297 0 0 1-15.228193 15.932017 26.553362 26.553362 0 1 0 37.622595 37.55861c5.822544-5.822544 11.453137-11.709073 16.955761-17.851537a26.489378 26.489378 0 1 0-39.350163-35.63909z m132.382905-473.929518c-58.545364-144.027993-175.188203-252.544864-320.047988-297.589603C501.703391-28.088978 318.261252 7.870032 186.454204 116.578855A518.782304 518.782304 0 0 0 2.62816 564.210947c16.827793 165.782554 118.562359 318.32042 265.533617 398.108473 75.373157 40.949763 159.832042 61.424644 244.354911 61.424644 84.522869 0 168.981755-20.474881 244.354911-61.36066a26.553362 26.553362 0 1 0-25.401649-46.708323 463.372157 463.372157 0 0 1-437.906524 0C161.820362 844.140965 70.579172 707.407148 55.478947 558.900275a464.971757 464.971757 0 0 1 164.822795-401.307673 464.203949 464.203949 0 0 1 428.820795-84.202949c129.631592 40.245939 234.053487 137.501625 286.584353 266.813296 52.530867 129.11972 45.492627 271.484129-19.259185 390.622345a26.553362 26.553362 0 1 0 46.708323 25.401649c72.429893-133.214696 80.363909-292.086978 21.818546-436.050987z" fill="#419BF9" p-id="6014"></path></svg>