<?xml version="1.0" standalone="no"?><!DOCTYPE svg PUBLIC "-//W3C//DTD SVG 1.1//EN" "http://www.w3.org/Graphics/SVG/1.1/DTD/svg11.dtd"><svg t="1490526715937" class="icon" style="" viewBox="0 0 1024 1024" version="1.1" xmlns="http://www.w3.org/2000/svg" p-id="6013" xmlns:xlink="http://www.w3.org/1999/xlink" width="60" height="60"><defs><style type="text/css"></style></defs><path d="M166.288801 327.905644l258.703976-261.995375c86.856367-87.990072 85.795805-87.770645 172.469317 0l258.667405 261.995375c47.542433 48.273855 36.644244 57.892055-18.90726 57.892054h-128.327997v319.119437c0 66.083981-52.918385 119.660646-118.161231 119.660646h-157.548307c-65.206275 0-118.161231-53.576664-118.161231-119.660646v-319.119437H184.976634c-50.138981 0-66.266837-9.6182-18.687833-57.892054z m778.927902 416.873992v159.559718c0 21.979232-17.627271 39.899072-39.387076 39.899072H118.161231c-21.723235 0-39.387077-17.91984-39.387077-39.899072v-159.559718H0v159.559718C0 970.386764 52.918385 1024 118.161231 1024h787.668396C971.072473 1024 1023.990857 970.386764 1023.990857 904.339354v-159.559718h-78.774154z" fill="#419BF9" p-id="6014"></path></svg>