<?xml version="1.0" standalone="no"?><!DOCTYPE svg PUBLIC "-//W3C//DTD SVG 1.1//EN" "http://www.w3.org/Graphics/SVG/1.1/DTD/svg11.dtd"><svg t="1532337349726" class="icon" style="" viewBox="0 0 1024 1024" version="1.1" xmlns="http://www.w3.org/2000/svg" p-id="2994" xmlns:xlink="http://www.w3.org/1999/xlink" width="200" height="200"><defs><style type="text/css"></style></defs><path d="M510.963391 74.863035c43.461861 0 84.23652 8.188496 122.340349 24.557302 38.10383 16.368806 71.440076 38.845727 100.015901 67.421552s51.052746 61.911048 67.421552 100.015901c16.368806 38.10383 24.557302 78.878488 24.557302 122.340349 0 28.575826-5.652743 57.597813-16.966417 87.066985s-24.708751 58.785871-40.185234 87.960331c-15.47546 29.17446-31.406291 58.044997-47.775096 86.620823-16.368806 28.575826-29.316699 56.258305-38.845727 83.048461-14.288424 40.479947-25.450648 76.503395-33.487695 108.052948-8.037047 31.549553-17.262152 58.196447-27.682479 79.923284s-23.663956 38.398542-39.73805 50.007951-39.291888 17.413602-69.653383 17.413602c-29.763884 0-52.686966-5.804193-68.76106-17.413602-16.074094-11.609409-29.316699-28.424376-39.73805-50.454112-10.42135-22.029736-19.797905-48.819892-28.129664-80.369446s-19.645432-67.26908-33.933857-107.159602c-9.528004-26.790156-22.324448-54.472636-38.398542-83.048461-16.074094-28.575826-31.995715-57.446363-47.775096-86.620823-15.779382-29.17446-29.316699-58.491159-40.631396-87.960331s-16.96744-58.491159-16.96744-87.066985c0-43.461861 8.188496-84.23652 24.557302-122.340349s38.845727-71.440076 67.421552-100.015901 61.911048-51.052746 100.015901-67.421552S467.50153 74.863035 510.963391 74.863035L510.963391 74.863035zM644.913149 674.956396c2.973728-7.742335 6.402827-15.47546 10.269901-23.217794 3.867074-7.742335 7.885598-15.33322 12.05557-22.771633 4.169973-7.438413 8.331759-15.029298 12.501732-22.771633 4.169973-7.742335 8.331759-15.47546 12.501732-23.217794 9.528004-16.672728 18.753109-33.487695 27.682479-50.454112 8.930393-16.96744 16.966417-33.639145 24.111141-50.007951s12.948917-32.4429 17.413602-48.222281 6.697539-30.80868 6.697539-45.096081c0-35.719526-6.697539-69.055772-20.092617-100.015901-13.395078-30.960129-31.853475-58.196447-55.365982-81.708953-23.512507-23.512507-50.748824-41.970904-81.708953-55.365982s-64.295352-20.092617-100.015901-20.092617-69.055772 6.697539-100.015901 20.092617c-30.960129 13.395078-58.196447 31.853475-81.708953 55.365982s-41.970904 50.748824-55.365982 81.708953c-13.395078 30.960129-20.092617 64.295352-20.092617 100.015901 0 14.288424 2.232854 29.316699 6.697539 45.096081 4.464685 15.779382 10.269901 31.853475 17.413602 48.222281s15.180747 33.040511 24.111141 50.007951c8.930393 16.96744 18.154475 33.782408 27.682479 50.454112 4.169973 7.742335 8.331759 15.33322 12.501732 22.771633 4.169973 7.438413 8.331759 15.029298 12.501732 22.771633 4.169973 7.742335 8.188496 15.47546 12.05557 23.217794 3.867074 7.742335 7.590885 15.47546 11.162224 23.217794L644.913149 674.956396 644.913149 674.956396zM585.082482 851.770404c0.598634-2.973728 1.339508-5.804193 2.232854-8.483208s1.785669-5.358031 2.679016-8.037047c0.893346-2.679016 1.785669-5.509481 2.679016-8.483208 0.893346-2.973728 1.63422-6.251378 2.232854-9.822716 0.598634-1.785669 1.339508-3.723811 2.232854-5.804193 0.893346-2.080382 1.63422-4.169973 2.232854-6.251378 0.598634-2.080382 1.188058-4.169973 1.785669-6.251378 0.598634-2.080382 1.188058-4.313236 1.785669-6.697539L426.12926 814.264185l0 0 0 0c0 0 0 0.151449 0 0.446162s0 0.446162 0 0.446162c1.785669 5.358031 3.419889 10.564613 4.91187 15.626909 1.490957 5.063319 2.973728 9.822716 4.464685 14.288424s2.830465 8.635681 4.018523 12.501732c1.188058 3.867074 2.384303 7.590885 3.572362 11.162224L585.082482 851.770404 585.082482 851.770404zM418.092213 786.581706l193.780425-24.111141c0.598634-2.384303 1.339508-4.91187 2.232854-7.590885 0.893346-2.679016 1.785669-5.206582 2.679016-7.590885 0.893346-2.384303 1.785669-4.91187 2.679016-7.590885 0.893346-2.679016 1.63422-5.206582 2.232854-7.590885L400.231427 732.107023c1.785669 4.759397 3.419889 9.528004 4.91187 14.288424 1.490957 4.759397 2.973728 9.376555 4.464685 13.84124s2.830465 8.930393 4.018523 13.395078C414.814564 778.097474 416.305521 782.41071 418.092213 786.581706L418.092213 786.581706zM510.963391 932.139849c8.331759 0 15.626909-0.446162 21.878287-1.339508 6.251378-0.893346 11.760858-2.973728 16.520255-6.251378s9.081843-8.331759 12.948917-15.180747c3.867074-6.848988 8.188496-16.225543 12.948917-28.129664l-121.447003 15.180747c3.572362 8.331759 7.296173 14.734586 11.162224 19.199271 3.867074 4.464685 7.885598 8.037047 12.05557 10.716063s9.081843 4.313236 14.734586 4.91187C497.416863 931.845137 503.81969 932.139849 510.963391 932.139849L510.963391 932.139849z" p-id="2995"></path><path d="M510.565325 258.908748c-22.545482 0-43.678802 4.226255-63.400982 12.679787s-36.916794 20.009729-51.566446 34.659381c-14.649652 14.649652-26.205848 31.844266-34.659381 51.566446-8.453533 19.72218-12.679787 40.8555-12.679787 63.400982 0 1.690502 0.422625 3.381004 1.267876 5.072529 0.845251 1.690502 1.834788 3.102664 2.958378 4.226255 1.124614 1.124614 2.535753 2.113127 4.226255 2.958378 1.690502 0.845251 3.381004 1.267876 5.072529 1.267876 1.690502 0 3.381004-0.422625 5.072529-1.267876 1.690502-0.845251 3.102664-1.834788 4.226255-2.958378 1.124614-1.124614 2.113127-2.535753 2.958378-4.226255 0.845251-1.690502 1.267876-3.381004 1.267876-5.072529 0-18.597567 3.52529-36.071543 10.56666-52.411697 7.04137-16.340153 16.763802-30.711466 29.164227-43.112913 12.401448-12.401448 26.771737-22.122857 43.112913-29.164227 16.340153-7.04137 33.81413-10.56666 52.411697-10.56666 1.690502 0 3.381004-0.422625 5.072529-1.267876 1.690502-0.845251 3.102664-1.834788 4.226255-2.958378 1.124614-1.124614 2.113127-2.535753 2.958378-4.226255 0.845251-1.690502 1.267876-3.381004 1.267876-5.072529 0-1.690502-0.422625-3.381004-1.267876-5.072529-0.845251-1.690502-1.834788-3.102664-2.958378-4.226255s-2.535753-2.113127-4.226255-2.958378C513.946328 259.331373 512.255827 258.908748 510.565325 258.908748L510.565325 258.908748z" p-id="2996"></path></svg>