<?xml version="1.0" encoding="UTF-8"?>
<svg width="18px" height="18px" viewBox="0 0 18 18" version="1.1" xmlns="http://www.w3.org/2000/svg" xmlns:xlink="http://www.w3.org/1999/xlink">
    <!-- Generator: Sketch 45.2 (43514) - http://www.bohemiancoding.com/sketch -->
    <title>LOGO </title>
    <desc>Created with Sketch.</desc>
    <defs>
        <path d="M3,18 L15,18 L15,18 C16.6568542,18 18,16.6568542 18,15 L18,3 L18,3 C18,1.34314575 16.6568542,-1.19253761e-15 15,-8.8817842e-16 L3,0 L3,0 C1.34314575,3.04359188e-16 -1.09108455e-15,1.34314575 -8.8817842e-16,3 L0,15 L0,15 C2.02906125e-16,16.6568542 1.34314575,18 3,18 Z" id="path-1"></path>
    </defs>
    <g id="LOGO" stroke="none" stroke-width="1" fill="none" fill-rule="evenodd">
        <g id="LOGO-">
            <g id="Fill-1">
                <use fill="#FFFFFF" fill-rule="evenodd" xlink:href="#path-1"></use>
                <path stroke="#DADADA" stroke-width="0.2" d="M3,17.9 L15,17.9 C16.6016258,17.9 17.9,16.6016258 17.9,15 L17.9,3 C17.9,1.39837423 16.6016258,0.1 15,0.1 L3,0.1 C1.39837423,0.1 0.1,1.39837423 0.1,3 L0.1,15 C0.1,16.6016258 1.39837423,17.9 3,17.9 Z"></path>
            </g>
            <g id="Group-18" transform="translate(3.476501, 3.344482)" fill="#231815">
                <path d="M10.88181,8.32209 C10.61831,8.22719 10.47431,8.31429 10.44961,8.58389 C10.41811,8.90169 10.15081,10.76479 9.70061,9.68569 C9.46041,9.11019 9.38941,8.42399 9.32121,7.80759 C9.17981,6.53079 9.16081,5.24129 9.16521,3.95799 C9.16521,3.72029 9.04171,3.60149 8.79471,3.60149 L1.49631,3.60149 C1.26551,3.60149 1.15051,3.70059 1.15051,3.89859 C1.15051,4.08099 1.27401,4.17209 1.52101,4.17209 L8.06621,4.17209 C8.27171,4.17209 8.37501,4.27139 8.37501,4.46939 C8.37501,4.94819 8.38881,5.42779 8.40991,5.90609 C8.44201,6.63559 8.49561,7.37079 8.60961,8.09249 C8.65761,8.39689 8.71431,8.70079 8.77801,9.00219 C8.84931,9.33929 8.92951,9.72219 9.07801,10.03369 C9.21781,10.32699 9.44941,10.65299 9.69641,10.79569 C10.12431,10.99369 10.47431,10.79569 10.74611,10.20099 C10.91061,9.78059 11.04231,9.32889 11.14131,8.84549 C11.19051,8.58389 11.10431,8.40959 10.88181,8.32209" id="Fill-2"></path>
                <path d="M1.49626,3.65149 C1.23126,3.65149 1.20056,3.79249 1.20056,3.89859 C1.20056,3.99449 1.23376,4.12209 1.52106,4.12209 L8.06626,4.12209 C8.30086,4.12209 8.42496,4.24219 8.42496,4.46939 C8.42496,4.90149 8.43636,5.37079 8.45986,5.90389 C8.49866,6.78589 8.56006,7.45849 8.65896,8.08479 C8.70556,8.38009 8.76216,8.68529 8.82696,8.99189 C8.89896,9.33249 8.97846,9.70869 9.12316,10.01219 C9.24856,10.27539 9.47166,10.60809 9.72136,10.75239 C9.88586,10.82819 10.03586,10.84089 10.17616,10.78899 C10.37286,10.71619 10.54926,10.51129 10.70056,10.18019 C10.86226,9.76689 10.99436,9.31359 11.09226,8.83549 C11.13666,8.59989 11.06206,8.44699 10.86416,8.36889 C10.74646,8.32659 10.65746,8.32379 10.59936,8.36079 C10.54366,8.39619 10.50996,8.47279 10.49936,8.58849 C10.49796,8.60309 10.35406,10.01299 9.99386,10.06679 C9.87416,10.08489 9.76346,9.96629 9.65446,9.70499 C9.41796,9.13829 9.34306,8.46059 9.27696,7.86269 L9.27146,7.81309 C9.12706,6.50779 9.11096,5.18879 9.11516,3.95789 C9.11516,3.74889 9.01336,3.65149 8.79466,3.65149 L1.49626,3.65149 Z M10.00296,10.91979 C9.89836,10.91979 9.78876,10.89349 9.67546,10.84109 C9.40186,10.68319 9.16486,10.33199 9.03286,10.05529 C8.88316,9.74099 8.80226,9.35869 8.73096,9.02129 C8.66396,8.70429 8.60706,8.39739 8.56026,8.10029 C8.46076,7.47019 8.39896,6.79419 8.35996,5.90829 C8.33636,5.37369 8.32496,4.90299 8.32496,4.46939 C8.32496,4.29839 8.24516,4.22209 8.06626,4.22209 L1.52106,4.22209 C1.17346,4.22209 1.10056,4.04619 1.10056,3.89859 C1.10056,3.74029 1.16916,3.55149 1.49626,3.55149 L8.79466,3.55149 C9.06976,3.55149 9.21516,3.69209 9.21516,3.95799 C9.21096,5.18619 9.22696,6.50179 9.37086,7.80209 L9.37636,7.85169 C9.44166,8.44289 9.51576,9.11299 9.74676,9.66649 C9.86596,9.95209 9.94876,9.97269 9.97906,9.96789 C10.17966,9.93799 10.35476,9.03369 10.39986,8.57899 C10.41336,8.43129 10.46246,8.32929 10.54566,8.27639 C10.63116,8.22189 10.75006,8.22149 10.89876,8.27509 L10.90016,8.27559 C11.14336,8.37119 11.24376,8.57149 11.19036,8.85469 C11.09126,9.33929 10.95746,9.79809 10.79266,10.21919 C10.62876,10.57799 10.43346,10.80039 10.21086,10.88279 C10.14416,10.90749 10.07466,10.91979 10.00296,10.91979 L10.00296,10.91979 Z" id="Fill-4"></path>
                <path d="M2.10124,7.82287 C1.89554,7.82287 1.79254,7.72377 1.79254,7.52557 L1.79254,7.18067 C1.79254,6.98267 1.89554,6.88327 2.10124,6.88327 L6.02844,6.88327 C6.23414,6.88327 6.33714,6.98267 6.33714,7.18067 L6.33714,7.52557 C6.33714,7.72377 6.23414,7.82287 6.02844,7.82287 L2.10124,7.82287 Z M7.66574,9.37157 C7.64624,9.36087 7.62754,9.35177 7.60954,9.34407 C7.43074,9.26787 7.31874,9.33637 7.21594,9.50917 C6.98844,9.89127 6.58794,9.95657 6.18324,9.95337 C5.89084,9.95107 5.29994,9.98847 5.29994,9.53517 L5.29994,8.70277 C5.29994,8.50477 5.40274,8.40537 5.60874,8.40537 L6.60884,8.40537 C6.85584,8.40537 6.97934,8.28657 6.97934,8.04867 L6.97934,6.65727 C6.97934,6.41967 6.85584,6.30077 6.60884,6.30077 L4.68234,6.30077 C4.47654,6.30077 4.37354,6.18167 4.37354,5.94397 C4.37354,5.71417 4.47654,5.59917 4.68234,5.59917 L7.25114,5.59917 C7.49804,5.59917 7.62154,5.51197 7.62154,5.33737 C7.62154,5.17107 7.49804,5.08777 7.25114,5.08777 L4.68234,5.08777 C4.47654,5.08777 4.37354,4.99667 4.37354,4.81427 C4.37354,4.64767 4.24584,4.56467 3.99084,4.56467 C3.74384,4.56467 3.62034,4.65187 3.62034,4.82617 C3.62034,5.00057 3.51744,5.08777 3.31164,5.08777 L0.77984,5.08777 C0.53284,5.08777 0.40934,5.17517 0.40934,5.34927 C0.40934,5.51587 0.53284,5.59917 0.77984,5.59917 L3.31164,5.59917 C3.51744,5.59917 3.62034,5.71797 3.62034,5.95597 C3.62034,6.18587 3.51744,6.30077 3.31164,6.30077 L1.52104,6.30077 C1.27404,6.30077 1.15054,6.41967 1.15054,6.65727 L1.15054,8.04867 C1.15054,8.28657 1.27404,8.40537 1.52104,8.40537 L2.21244,8.40537 C2.41824,8.40537 2.45524,8.52837 2.32374,8.77407 C2.16724,9.12287 1.86674,9.43987 1.42204,9.72537 C1.20804,9.86007 0.91164,9.99887 0.53284,10.14157 C0.27764,10.22067 0.21184,10.33957 0.33534,10.49837 C0.47534,10.67267 0.68514,10.71237 0.96514,10.61717 C1.92844,10.31587 2.61574,9.69757 3.02764,8.76217 C3.14274,8.52427 3.29914,8.40537 3.49694,8.40537 L4.31184,8.40537 C4.51754,8.40537 4.62054,8.50477 4.62054,8.70277 L4.62054,9.87997 C4.67514,10.38687 5.07904,10.55987 5.52904,10.58397 C6.17244,10.61837 6.84164,10.59647 7.47324,10.46257 C7.87344,10.37767 8.02184,9.56687 7.66574,9.37157 L7.66574,9.37157 Z" id="Fill-6"></path>
                <path d="M2.10124,6.93332 C1.92224,6.93332 1.84254,7.00962 1.84254,7.18072 L1.84254,7.52552 C1.84254,7.69662 1.92224,7.77292 2.10124,7.77292 L6.02844,7.77292 C6.20734,7.77292 6.28714,7.69662 6.28714,7.52552 L6.28714,7.18072 C6.28714,7.00962 6.20734,6.93332 6.02844,6.93332 L2.10124,6.93332 Z M6.02844,7.87292 L2.10124,7.87292 C1.86654,7.87292 1.74254,7.75272 1.74254,7.52552 L1.74254,7.18072 C1.74254,6.95342 1.86654,6.83332 2.10124,6.83332 L6.02844,6.83332 C6.26314,6.83332 6.38714,6.95342 6.38714,7.18072 L6.38714,7.52552 C6.38714,7.75272 6.26314,7.87292 6.02844,7.87292 L6.02844,7.87292 Z M1.52104,6.35082 C1.30234,6.35082 1.20054,6.44822 1.20054,6.65732 L1.20054,8.04862 C1.20054,8.25792 1.30234,8.35542 1.52104,8.35542 L2.21244,8.35542 C2.31824,8.35542 2.39014,8.38592 2.42624,8.44622 C2.47224,8.52312 2.45324,8.63812 2.36784,8.79772 C2.20954,9.15082 1.89984,9.47812 1.44904,9.76742 C1.23264,9.90362 0.93044,10.04512 0.55044,10.18832 C0.42114,10.22852 0.34544,10.27742 0.32874,10.33082 C0.31724,10.36742 0.33274,10.41352 0.37484,10.46762 C0.50094,10.62472 0.68894,10.65822 0.94904,10.56982 C1.89434,10.27422 2.57794,9.65932 2.98194,8.74202 C3.10614,8.48492 3.27914,8.35542 3.49694,8.35542 L4.31184,8.35542 C4.54654,8.35542 4.67054,8.47552 4.67054,8.70272 L4.67054,9.88002 C4.71434,10.28402 5.00414,10.50582 5.53174,10.53402 C6.25384,10.57272 6.90384,10.53222 7.46294,10.41362 C7.65754,10.37232 7.77654,10.13752 7.80814,9.92322 C7.84274,9.68912 7.77734,9.48982 7.64174,9.41542 C7.62374,9.40562 7.60654,9.39712 7.58994,9.39002 C7.44744,9.32932 7.35784,9.36862 7.25894,9.53472 C7.00824,9.95572 6.55344,10.00622 6.18284,10.00342 L6.11404,10.00332 C5.88504,10.00372 5.53964,10.00442 5.36244,9.82762 C5.28784,9.75322 5.24994,9.65482 5.24994,9.53512 L5.24994,8.70272 C5.24994,8.47552 5.37404,8.35542 5.60874,8.35542 L6.60884,8.35542 C6.82754,8.35542 6.92934,8.25792 6.92934,8.04862 L6.92934,6.65732 C6.92934,6.44822 6.82754,6.35082 6.60884,6.35082 L4.68234,6.35082 C4.51864,6.35082 4.32354,6.28022 4.32354,5.94402 C4.32354,5.61772 4.51864,5.54912 4.68234,5.54912 L7.25114,5.54912 C7.53834,5.54912 7.57154,5.42832 7.57154,5.33742 C7.57154,5.25172 7.53834,5.13772 7.25114,5.13772 L4.68234,5.13772 C4.38584,5.13772 4.32354,4.96182 4.32354,4.81432 C4.32354,4.72862 4.28904,4.61462 3.99084,4.61462 C3.70354,4.61462 3.67034,4.73542 3.67034,4.82622 C3.67034,4.96832 3.60814,5.13772 3.31164,5.13772 L0.77984,5.13772 C0.49254,5.13772 0.45934,5.25852 0.45934,5.34932 C0.45934,5.43512 0.49254,5.54912 0.77984,5.54912 L3.31164,5.54912 C3.47524,5.54912 3.67034,5.61972 3.67034,5.95592 C3.67034,6.28232 3.47524,6.35082 3.31164,6.35082 L1.52104,6.35082 Z M0.69424,10.71772 C0.53034,10.71772 0.39704,10.65492 0.29644,10.52962 C0.23244,10.44742 0.21144,10.37062 0.23334,10.30082 C0.26114,10.21232 0.35424,10.14462 0.51804,10.09372 C0.88884,9.95392 1.18504,9.81542 1.39544,9.68302 C1.82924,9.40462 2.12634,9.09182 2.27814,8.75362 C2.36684,8.58762 2.35514,8.52212 2.34044,8.49752 C2.31954,8.46272 2.25934,8.45542 2.21244,8.45542 L1.52104,8.45542 C1.24594,8.45542 1.10054,8.31472 1.10054,8.04862 L1.10054,6.65732 C1.10054,6.39142 1.24594,6.25082 1.52104,6.25082 L3.31164,6.25082 C3.48814,6.25082 3.57034,6.15712 3.57034,5.95592 C3.57034,5.68102 3.42264,5.64912 3.31164,5.64912 L0.77984,5.64912 C0.43234,5.64912 0.35934,5.48612 0.35934,5.34932 C0.35934,5.20722 0.43234,5.03772 0.77984,5.03772 L3.31164,5.03772 C3.54094,5.03772 3.57034,4.92472 3.57034,4.82622 C3.57034,4.68412 3.64324,4.51462 3.99084,4.51462 C4.34854,4.51462 4.42354,4.67762 4.42354,4.81432 C4.42354,4.96882 4.50334,5.03772 4.68234,5.03772 L7.25114,5.03772 C7.59864,5.03772 7.67154,5.20072 7.67154,5.33742 C7.67154,5.47962 7.59864,5.64912 7.25114,5.64912 L4.68234,5.64912 C4.50574,5.64912 4.42354,5.74282 4.42354,5.94402 C4.42354,6.21902 4.57124,6.25082 4.68234,6.25082 L6.60884,6.25082 C6.88394,6.25082 7.02934,6.39142 7.02934,6.65732 L7.02934,8.04862 C7.02934,8.31472 6.88394,8.45542 6.60884,8.45542 L5.60874,8.45542 C5.42974,8.45542 5.34994,8.53172 5.34994,8.70272 L5.34994,9.53512 C5.34994,9.62852 5.37714,9.70112 5.43304,9.75692 C5.58094,9.90442 5.90254,9.90362 6.11384,9.90332 L6.18364,9.90342 C6.54544,9.90592 6.94964,9.85872 7.17294,9.48352 C7.25694,9.34242 7.38474,9.19392 7.62914,9.29802 C7.64854,9.30632 7.66874,9.31622 7.68974,9.32772 L7.68974,9.32772 C7.89934,9.44272 7.93944,9.71822 7.90714,9.93782 C7.87044,10.18642 7.72534,10.46022 7.48364,10.51142 C6.91614,10.63182 6.25784,10.67302 5.52634,10.63392 C4.95074,10.60312 4.62024,10.34422 4.57084,9.88532 L4.57054,8.70272 C4.57054,8.53172 4.49074,8.45542 4.31184,8.45542 L3.49694,8.45542 C3.31834,8.45542 3.17954,8.56282 3.07264,8.78392 C2.65724,9.72722 1.95294,10.36062 0.98004,10.66492 C0.87634,10.70012 0.78104,10.71772 0.69424,10.71772 L0.69424,10.71772 Z" id="Fill-8"></path>
                <path d="M2.61994,2.21018 C2.37294,2.21018 2.24944,2.30928 2.24944,2.50728 C2.24944,2.69768 2.37294,2.79268 2.61994,2.79268 L9.12824,2.79268 C9.37514,2.79268 9.49864,2.69388 9.49864,2.49558 C9.49864,2.30518 9.37514,2.21018 9.12824,2.21018 L2.61994,2.21018 Z" id="Fill-10"></path>
                <path d="M2.61994,2.26018 C2.33264,2.26018 2.29944,2.40118 2.29944,2.50728 C2.29944,2.60838 2.33264,2.74268 2.61994,2.74268 L9.12824,2.74268 C9.41544,2.74268 9.44864,2.60168 9.44864,2.49558 C9.44864,2.39458 9.41544,2.26018 9.12824,2.26018 L2.61994,2.26018 Z M9.12824,2.84268 L2.61994,2.84268 C2.27244,2.84268 2.19944,2.66028 2.19944,2.50728 C2.19944,2.34898 2.27244,2.16018 2.61994,2.16018 L9.12824,2.16018 C9.47574,2.16018 9.54864,2.34258 9.54864,2.49558 C9.54864,2.65398 9.47574,2.84268 9.12824,2.84268 L9.12824,2.84268 Z" id="Fill-12"></path>
                <path d="M0.90334,2.9593 C1.33984,2.5709 1.69374,2.1863 1.96554,1.8057 C2.15474,1.568 2.34844,1.4491 2.54594,1.4491 L10.32614,1.4491 C10.57304,1.4491 10.69664,1.35 10.69664,1.1518 C10.69664,0.9538 10.57304,0.8544 10.32614,0.8544 L2.92864,0.8544 C2.73114,0.8544 2.68594,0.7436 2.79294,0.5215 C2.88344,0.3394 2.79294,0.2123 2.52124,0.1411 C2.29894,0.0934 2.12174,0.2006 1.99024,0.4621 C1.49624,1.2707 0.94054,1.9525 0.32314,2.5073 C0.09244,2.7055 0.05544,2.8921 0.21184,3.0662 C0.37634,3.2328 0.60714,3.197 0.90334,2.9593" id="Fill-14"></path>
                <path d="M2.42175,0.17986 C2.26525,0.17986 2.13765,0.28016 2.03495,0.48456 C1.53855,1.29736 0.97455,1.98926 0.35655,2.54446 C0.23655,2.64756 0.17325,2.74516 0.16745,2.83516 C0.16315,2.90216 0.18985,2.96686 0.24905,3.03276 C0.39195,3.17746 0.59605,3.14146 0.87105,2.92106 C1.30205,2.53746 1.65655,2.15246 1.92485,1.77666 C2.12465,1.52546 2.33315,1.39916 2.54595,1.39916 L10.32605,1.39916 C10.61345,1.39916 10.64665,1.25796 10.64665,1.15176 C10.64665,1.04556 10.61345,0.90446 10.32605,0.90446 L2.92865,0.90446 C2.82285,0.90446 2.75035,0.87446 2.71315,0.81516 C2.66855,0.74416 2.67995,0.64106 2.74785,0.49986 C2.77945,0.43626 2.78515,0.38476 2.76555,0.34176 C2.73645,0.27776 2.64995,0.22656 2.50855,0.18946 C2.47865,0.18306 2.44975,0.17986 2.42175,0.17986 M0.44745,3.21976 C0.34485,3.21976 0.25435,3.18036 0.17625,3.10136 C0.09755,3.01386 0.06155,2.92266 0.06765,2.82876 C0.07525,2.71086 0.15025,2.58996 0.29055,2.46936 C0.90045,1.92136 1.45825,1.23696 1.94755,0.43606 C2.08815,0.15626 2.28525,0.03926 2.53175,0.09226 C2.70825,0.13836 2.81385,0.20626 2.85665,0.30036 C2.88895,0.37156 2.88255,0.45336 2.83775,0.54376 C2.78835,0.64646 2.77405,0.72406 2.79785,0.76196 C2.81985,0.79706 2.88115,0.80446 2.92865,0.80446 L10.32605,0.80446 C10.67365,0.80446 10.74665,0.99336 10.74665,1.15176 C10.74665,1.31026 10.67365,1.49916 10.32605,1.49916 L2.54595,1.49916 C2.36515,1.49916 2.18305,1.61276 2.00465,1.83686 C1.73335,2.21686 1.37355,2.60786 0.93655,2.99666 L0.93465,2.99826 C0.75065,3.14586 0.58785,3.21976 0.44745,3.21976" id="Fill-16"></path>
            </g>
        </g>
    </g>
</svg>