<?xml version="1.0" standalone="no"?><!DOCTYPE svg PUBLIC "-//W3C//DTD SVG 1.1//EN" "http://www.w3.org/Graphics/SVG/1.1/DTD/svg11.dtd"><svg t="1500692573780" class="icon" style="" viewBox="0 0 1024 1024" version="1.1" xmlns="http://www.w3.org/2000/svg" p-id="12392" xmlns:xlink="http://www.w3.org/1999/xlink" width="16" height="16"><defs><style type="text/css"></style></defs><path d="M533.333333 537.6L814.933333 256c8.533333-8.533333 8.533333-21.333333 0-29.866667s-21.333333-8.533333-29.866666 0l-281.6 281.6-285.866667-281.6c-8.533333-8.533333-21.333333-8.533333-29.866667 0s-8.533333 21.333333 0 29.866667l281.6 281.6-281.6 281.6c-8.533333 8.533333-8.533333 21.333333 0 29.866667 4.266667 4.266667 8.533333 4.266667 17.066667 4.266666s12.8 0 17.066667-4.266666l281.6-281.6 281.6 281.6c4.266667 4.266667 8.533333 4.266667 17.066666 4.266666s12.8 0 17.066667-4.266666c8.533333-8.533333 8.533333-21.333333 0-29.866667l-285.866667-281.6z" fill="#666666" p-id="12393"></path></svg>