<?xml version="1.0" encoding="UTF-8"?>
<svg width="130px" height="50px" viewBox="0 0 130 50" version="1.1" xmlns="http://www.w3.org/2000/svg" xmlns:xlink="http://www.w3.org/1999/xlink">
    <!-- Generator: Sketch 50.2 (55047) - http://www.bohemiancoding.com/sketch -->
    <title>新LOGO</title>
    <desc>Created with Sketch.</desc>
    <defs>
        <polygon id="path-1" points="0 0.0210584142 99.8847765 0.0210584142 99.8847765 35.6589007 0 35.6589007"></polygon>
    </defs>
    <g id="新LOGO" stroke="none" stroke-width="1" fill="none" fill-rule="evenodd">
        <g id="Group" transform="translate(15.000000, 7.000000)">
            <g id="Group-3">
                <mask id="mask-2" fill="white">
                    <use xlink:href="#path-1"></use>
                </mask>
                <g id="Clip-2"></g>
                <path d="M5.75079609,35.6589007 C2.57984637,35.6589007 -4.18994413e-05,33.0656272 -4.18994413e-05,29.8780852 L-4.18994413e-05,5.80185985 C-4.18994413e-05,2.61431789 2.57984637,0.0209039858 5.75079609,0.0209039858 L94.134176,0.0209039858 C97.3051257,0.0209039858 99.8848743,2.61431789 99.8848743,5.80185985 L99.8848743,29.8780852 C99.8848743,33.0656272 97.3051257,35.6589007 94.134176,35.6589007 L5.75079609,35.6589007 Z" id="Fill-1" fill="#FFE62C" mask="url(#mask-2)"></path>
            </g>
            <path d="M5.73165358,3.25421061 C4.37152742,3.25421061 3.26497705,4.34821592 3.26497705,5.6930279 L3.26497705,29.1908302 C3.26497705,30.535505 4.37152742,31.6293732 5.73165358,31.6293732 L93.4925977,31.6293732 C94.8530013,31.6293732 95.9596904,30.535505 95.9596904,29.1908302 L95.9596904,5.6930279 C95.9596904,4.34821592 94.8530013,3.25421061 93.4925977,3.25421061 L5.73165358,3.25421061 Z M5.73165358,32.5581395 C3.85341715,32.5581395 2.3255814,31.0475401 2.3255814,29.1908302 L2.3255814,5.6930279 C2.3255814,3.83618084 3.85341715,2.3255814 5.73165358,2.3255814 L93.4925977,2.3255814 C95.3709729,2.3255814 96.8992248,3.83618084 96.8992248,5.6930279 L96.8992248,29.1908302 C96.8992248,31.0475401 95.3709729,32.5581395 93.4925977,32.5581395 L5.73165358,32.5581395 Z" id="Fill-4" fill="#231F20"></path>
            <polygon id="Fill-6" fill="#231F20" points="28.6821705 27.1317829 29.4573643 27.1317829 29.4573643 9.30232558 28.6821705 9.30232558"></polygon>
            <path d="M38.5515424,22.6938018 L43.5094634,22.6938018 L43.5094634,21.6132413 L38.5515424,21.6132413 L38.5515424,22.6938018 Z M48.1051663,25.8196039 C47.6666044,24.9321756 47.4567973,23.1568991 47.4567973,20.455428 L47.4567973,16.9241884 L35.881999,16.9241884 L35.881999,15.2647913 L49.3255606,15.2647913 L49.3255606,20.455428 C49.3255606,22.3269906 49.3637325,23.5234304 49.459024,24.0636406 C49.5353678,24.5846776 49.6688311,24.8549227 49.8595523,24.8549227 C49.9548438,24.8549227 50.0692211,24.5846776 50.1835985,24.0444674 C50.2408564,23.58137 50.2979759,23.0796463 50.3743197,22.5201228 L51.9379845,23.2919517 C51.7092297,24.8356095 51.4230788,25.8582303 51.1179802,26.3791273 C50.8128816,26.880991 50.4506635,27.1317829 50.0692211,27.1317829 C49.1730114,27.1124697 48.5246423,26.6688256 48.1051663,25.8196039 Z M41.9077651,17.2907196 L41.9077651,17.9469491 L46.5986211,17.9469491 L46.5986211,19.413494 L41.9077651,19.413494 L41.9077651,20.2046361 L45.1875056,20.2046361 L45.1875056,24.102407 L43.433258,24.102407 L43.433258,25.221454 C43.433258,25.4529326 43.5668596,25.5881252 43.833648,25.5881252 L45.2065916,25.5881252 C45.3973128,25.5881252 45.5307761,25.5110122 45.6262058,25.3951329 C45.7405832,25.2793936 45.816927,24.874096 45.8549606,24.1795199 L47.4567973,24.700417 C47.3422816,25.8582303 47.1326128,26.5529463 46.8275142,26.7651117 C46.5415016,26.958104 46.1029397,27.0738433 45.5118284,27.0738433 L43.3569142,27.0738433 C42.2701215,27.0738433 41.7361298,26.5722595 41.7361298,25.6074384 L41.7361298,24.102407 L40.3441003,24.102407 C40.1724651,25.0670882 39.8673665,25.7233177 39.4288046,26.0703958 C38.8948129,26.5914327 37.5791272,26.9387907 35.481609,27.0932965 L34.7950681,25.5301855 C36.3967665,25.4723858 37.4647498,25.2988468 37.9795172,24.9901152 C38.2846158,24.7778098 38.4944229,24.4882515 38.6278862,24.102407 L36.8735003,24.102407 L36.8735003,20.2046361 L40.0961213,20.2046361 L40.0961213,19.413494 L35.4242129,19.413494 L35.4242129,17.9469491 L40.0961213,17.9469491 L40.0961213,17.2907196 L41.9077651,17.2907196 Z M35.2908878,15.5542096 L34.1085271,13.9719254 C35.9772905,12.6983727 37.2358567,11.1547149 37.8842257,9.30232558 L39.8293329,9.55311749 C39.7148172,9.861989 39.6193875,10.1514073 39.5050101,10.4408257 L50.7175902,10.4408257 L50.7175902,12.1387093 L38.6088003,12.1387093 C38.4180791,12.4089544 38.2274962,12.6790595 38.036775,12.9298514 L49.8404664,12.9298514 L49.8404664,14.4737891 L37.8460538,14.4737891 L37.8460538,13.16161 C37.1214793,14.029865 36.2823891,14.8210071 35.2908878,15.5542096 Z" id="Fill-8" fill="#231F20"></path>
            <path d="M71.1093511,17.2791328 L69.948775,19.0364019 C68.1785932,17.5752809 66.3492056,16.4104511 64.4804426,15.5811507 L65.5427229,13.9620744 C67.5883899,14.870424 69.4374652,15.975967 71.1093511,17.2791328 Z M62.3955428,15.5416261 C60.8219528,16.9238411 58.913957,18.0689086 56.6715555,18.977115 L55.786322,17.1014154 C57.9501153,16.3116396 59.7401274,15.3047649 61.1169831,14.080505 L62.3955428,15.5416261 Z M70.3814766,19.3326931 L70.3814766,21.2676797 L64.5790238,21.2676797 L64.5790238,25.1572718 L72.0338175,25.1572718 L72.0338175,27.1317829 L55.0782778,27.1317829 L55.0782778,25.1572718 L62.4938387,25.1572718 L62.4938387,21.2676797 L56.7306186,21.2676797 L56.7306186,19.3326931 L70.3814766,19.3326931 Z M64.6182566,11.2175498 L72.0930233,11.2175498 L72.0930233,15.5021015 L70.0275258,15.5021015 L70.0275258,13.1130118 L57.1042571,13.1130118 L57.1042571,15.4823392 L55.0387597,15.4823392 L55.0387597,11.2175498 L62.4544633,11.2175498 C62.2184961,10.6647784 61.9628412,10.131626 61.6873559,9.6577605 L63.9297574,9.30232558 C64.1658673,9.87500255 64.3822894,10.5068232 64.6182566,11.2175498 Z" id="Fill-9" fill="#231F20"></path>
            <path d="M86.8040544,26.9605131 L86.2561349,25.0957276 L87.9583608,25.1527256 C88.447529,25.1527256 88.701976,24.8104618 88.701976,24.1444276 L88.701976,12.118549 L81.4233459,12.118549 L81.4233459,10.2917162 L90.6976744,10.2917162 L90.6976744,24.6961899 C90.6976744,26.1993902 89.9150337,26.9605131 88.369194,26.9605131 L86.8040544,26.9605131 Z M80.4448676,22.089189 L84.5733508,22.089189 L84.5733508,20.0340884 L80.4448676,20.0340884 L80.4448676,22.089189 Z M80.4448676,18.3218035 L84.5733508,18.3218035 L84.5733508,16.2667029 L80.4448676,16.2667029 L80.4448676,18.3218035 Z M78.5273622,23.8399785 L86.4714143,23.8399785 L86.4714143,14.5160514 L78.5273622,14.5160514 L78.5273622,23.8399785 Z M80.2493138,12.6893566 L78.4101435,13.6217493 C77.6861121,12.2896809 76.8838876,11.1290204 76.0229118,10.1204464 L77.8818078,9.30232558 C78.7818092,10.3298069 79.5644499,11.4525148 80.2493138,12.6893566 Z M74.4186047,27.1317829 L76.4143031,27.1317829 L76.4143031,12.6701733 L74.4186047,12.6701733 L74.4186047,27.1317829 Z" id="Fill-10" fill="#231F20"></path>
            <path d="M18.2244133,20.1550388 L8.90736963,20.1550388 C8.69728715,20.1550388 8.52713178,20.3274491 8.52713178,20.5403156 L8.52713178,27.1317829 L13.0758183,27.1317829 L13.0758183,23.0412074 C13.0758183,22.8284858 13.2459736,22.6560755 13.4560561,22.6560755 L18.2244133,22.6560755 C18.4344958,22.6560755 18.6046512,22.4836652 18.6046512,22.2707987 L18.6046512,20.5403156 C18.6046512,20.3274491 18.4343527,20.1550388 18.2244133,20.1550388" id="Fill-11" fill="#231F20"></path>
            <path d="M22.526655,27.1261754 C23.7859899,27.1252181 24.8062016,26.1497859 24.8062016,24.9469079 L24.8062016,16.5460463 C24.8062016,14.8041641 22.5912326,14.1196383 21.4905495,15.3631365 L19.621665,17.4741566 L16.6226007,17.4741566 C16.0047462,17.4741566 15.503876,17.9525724 15.503876,18.542728 L15.503876,19.6241557 L19.6210922,19.6241557 C19.9711859,19.6241557 20.2551269,19.8953674 20.2551269,20.2297661 L20.2551269,23.2318323 C20.2551269,23.5663678 19.9711859,23.8374427 19.6210922,23.8374427 L17.2330094,23.8374427 C16.2780913,23.8374427 15.503876,24.5768126 15.503876,25.4890578 L15.503876,27.1317829 L22.526655,27.1261754 Z" id="Fill-12" fill="#231F20"></path>
            <path d="M19.379845,11.2403101 C19.379845,10.1699732 20.2475193,9.30232558 21.317889,9.30232558 C22.3881396,9.30232558 23.255814,10.1699732 23.255814,11.2403101 C23.255814,12.3106469 22.3881396,13.1782946 21.317889,13.1782946 C20.2475193,13.1782946 19.379845,12.3106469 19.379845,11.2403101" id="Fill-13" fill="#231F20"></path>
            <path d="M12.8260043,18.8281641 L10.3856475,14.2460742 C10.2368469,13.9662519 9.90729998,13.8704432 9.64963125,14.0319493 L9.57172814,14.0807661 C9.31419953,14.2421201 9.22578791,14.599806 9.37458845,14.8794762 L12.004659,19.8183396 C12.1154887,20.0265334 12.3203347,20.1550388 12.5419942,20.1550388 L17.8294574,20.1550388 L17.8294574,18.8281641 L12.8260043,18.8281641 Z" id="Fill-14" fill="#231F20"></path>
        </g>
    </g>
</svg>