<svg id="图层_1" data-name="图层 1" xmlns="http://www.w3.org/2000/svg" viewBox="0 0 130 50"><defs><style>.cls-1{fill:#ffe200;}</style></defs><title>OP新LOGO</title><g id="_编组_" data-name="&lt;编组&gt;"><rect id="_路径_" data-name="&lt;路径&gt;" class="cls-1" x="15" y="7.25" width="100" height="35.49" rx="5.76" ry="5.76"/><path id="_复合路径_" data-name="&lt;复合路径&gt;" d="M20.76,40.42A3.44,3.44,0,0,1,17.33,37V13a3.44,3.44,0,0,1,3.43-3.43h88.46A3.44,3.44,0,0,1,112.66,13V37a3.44,3.44,0,0,1-3.43,3.43Zm0-29.88A2.49,2.49,0,0,0,18.27,13V37a2.49,2.49,0,0,0,2.49,2.49h88.46A2.49,2.49,0,0,0,111.71,37V13a2.49,2.49,0,0,0-2.49-2.49Z"/><rect id="_矩形_" data-name="&lt;矩形&gt;" x="43.77" y="16.13" width="0.93" height="17.76"/><g id="_编组_2" data-name="&lt;编组&gt;"><path id="_复合路径_2" data-name="&lt;复合路径&gt;" d="M50.55,22.37l-1.2-1.58a9.4,9.4,0,0,0,3.82-4.67l2,.25c-.12.31-.21.6-.33.89H66.15V19H53.9c-.19.27-.39.54-.58.79H65.26v1.54H53.13V20A14.67,14.67,0,0,1,50.55,22.37Zm6.69,1.74v.66H62v1.47H57.24V27h3.32v3.89H58.78V32c0,.23.14.37.4.37h1.39a.52.52,0,0,0,.42-.19A2.5,2.5,0,0,0,61.23,31l1.62.52c-.12,1.16-.33,1.85-.64,2.06a2.42,2.42,0,0,1-1.33.31H58.7c-1.1,0-1.64-.5-1.64-1.47v-1.5H55.66a3.13,3.13,0,0,1-.93,2c-.54.52-1.87.87-4,1L50,32.34a7.9,7.9,0,0,0,3.22-.54,1.72,1.72,0,0,0,.66-.89H52.15V27h3.26v-.79H50.68V24.77h4.72v-.66Zm6.27,8.52c-.44-.89-.66-2.66-.66-5.36V23.74H51.15V22.09H64.74v5.19a27.48,27.48,0,0,0,.13,3.61c.08.52.21.79.4.79s.21-.27.33-.81.12-1,.19-1.52l1.58.77a9.56,9.56,0,0,1-.83,3.08,1.31,1.31,0,0,1-1.06.75A2.15,2.15,0,0,1,63.51,32.63Zm-4.65-4.2h-5v1.08h5Z"/><path id="_复合路径_3" data-name="&lt;复合路径&gt;" d="M79.28,18H86.6v4.18h-2V19.85H71.91v2.31h-2V18h7.27a14,14,0,0,0-.75-1.52l2.2-.35C78.83,16.69,79,17.3,79.28,18Zm5.65,7.92v1.89H79.24v3.8h7.31v1.93H69.92V31.61h7.27v-3.8H71.54V25.92Zm-7.83-3.7a19.53,19.53,0,0,1-5.61,3.35l-.87-1.83a16.12,16.12,0,0,0,5.22-2.95Zm8.54,1.7L84.5,25.63a23.4,23.4,0,0,0-5.36-3.37l1-1.58A26,26,0,0,1,85.64,23.92Z"/><path id="_复合路径_4" data-name="&lt;复合路径&gt;" d="M92,19.5V34.15h-2V19.5Zm3.78,0L94,20.47a20.6,20.6,0,0,0-2.35-3.55l1.83-.83A19.53,19.53,0,0,1,95.8,19.52Zm6.13,1.85v9.45H94.1V21.37Zm-1.87,3.86V23.15H96v2.08Zm0,1.74H96V29h4.07Zm2.2,7-.54-1.89,1.68.06c.48,0,.73-.35.73-1V18.94H97V17.09h9.14V31.69A2,2,0,0,1,103.8,34Z"/></g><g id="_编组_3" data-name="&lt;编组&gt;"><path id="_路径_2" data-name="&lt;路径&gt;" d="M33.34,27.15h-9.1a.37.37,0,0,0-.37.37v6.36h4.44V29.93a.37.37,0,0,1,.37-.37h4.66a.37.37,0,0,0,.37-.37V27.52A.37.37,0,0,0,33.34,27.15Z"/><path id="_路径_3" data-name="&lt;路径&gt;" d="M36.88,33.87a2.23,2.23,0,0,0,2.23-2.23V23.05a1.84,1.84,0,0,0-3.24-1.21L34,24H31.12A1.09,1.09,0,0,0,30,25.1V26.2h4a.62.62,0,0,1,.62.62v3.07a.62.62,0,0,1-.62.62H31.71A1.69,1.69,0,0,0,30,32.2v1.68Z"/><circle id="_路径_4" data-name="&lt;路径&gt;" cx="36.89" cy="18.4" r="2.28"/><path id="_路径_5" data-name="&lt;路径&gt;" d="M28,25l-2.44-4.21a.54.54,0,0,0-.73-.2l-.08,0a.54.54,0,0,0-.2.73l2.62,4.54a.62.62,0,0,0,.54.31H33V25Z"/></g></g></svg>