<?xml version="1.0" standalone="no"?><!DOCTYPE svg PUBLIC "-//W3C//DTD SVG 1.1//EN" "http://www.w3.org/Graphics/SVG/1.1/DTD/svg11.dtd"><svg t="1489568559625" class="icon" style="" viewBox="0 0 1024 1024" version="1.1" xmlns="http://www.w3.org/2000/svg" p-id="6612" xmlns:xlink="http://www.w3.org/1999/xlink" width="48" height="48"><defs><style type="text/css"></style></defs><path d="M512 512m-512 0a512 512 0 1 0 1024 0 512 512 0 1 0-1024 0Z" fill="#FF6868" p-id="6613"></path><path d="M719.36 599.04v-184.32c0-102.4-87.04-184.32-194.56-184.32s-194.56 81.92-194.56 184.32v184.32c0 46.08-48.64 92.16-48.64 92.16h486.4s-48.64-46.08-48.64-92.16zM537.6 793.6c43.52 0 76.8-23.04 76.8-51.2h-153.6c0 28.16 33.28 51.2 76.8 51.2z" fill="#FFFFFF" p-id="6614"></path></svg>