<?xml version="1.0" encoding="UTF-8"?>
<svg width="120px" height="34px" viewBox="0 0 120 34" version="1.1" xmlns="http://www.w3.org/2000/svg" xmlns:xlink="http://www.w3.org/1999/xlink">
    <!-- Generator: Sketch 45.2 (43514) - http://www.bohemiancoding.com/sketch -->
    <title>OPLOGO</title>
    <desc>Created with Sketch.</desc>
    <defs>
        <polygon id="path-1" points="94.50045 33.574915 94.50045 0.10965 0.0002125 0.10965 0.0002125 33.574915"></polygon>
        <polygon id="path-3" points="0 33.8905625 94.50045 33.8905625 94.50045 0.4252125 0 0.4252125"></polygon>
    </defs>
    <g id="Page-1" stroke="none" stroke-width="1" fill="none" fill-rule="evenodd">
        <g id="OPLOGO">
            <g id="Page-1" transform="translate(13.000000, 0.000000)">
                <g id="Group-3" transform="translate(0.000000, 0.315563)">
                    <mask id="mask-2" fill="white">
                        <use xlink:href="#path-1"></use>
                    </mask>
                    <g id="Clip-2"></g>
                    <path d="M5.4283125,33.574915 C2.4350375,33.574915 0.0002125,31.14009 0.0002125,28.146815 L0.0002125,5.537665 C0.0002125,2.54439 2.4350375,0.109565 5.4283125,0.109565 L89.0725625,0.109565 C92.0654125,0.109565 94.5006625,2.54439 94.5006625,5.537665 L94.5006625,28.146815 C94.5006625,31.14009 92.0654125,33.574915 89.0725625,33.574915 L5.4283125,33.574915 Z" id="Fill-1" fill="#5F6A7D" mask="url(#mask-2)"></path>
                </g>
                <path d="M5.4316275,3.5212525 C4.1387775,3.5212525 3.0873275,4.5731275 3.0873275,5.8659775 L3.0873275,28.4560025 C3.0873275,29.7488525 4.1387775,30.8007275 5.4316275,30.8007275 L89.0537775,30.8007275 C90.3466275,30.8007275 91.3985025,29.7488525 91.3985025,28.4560025 L91.3985025,5.8659775 C91.3985025,4.5731275 90.3466275,3.5212525 89.0537775,3.5212525 L5.4316275,3.5212525 Z M5.4316275,31.6932275 C3.6466275,31.6932275 2.1948275,30.2410025 2.1948275,28.4560025 L2.1948275,5.8659775 C2.1948275,4.0805525 3.6466275,2.6283275 5.4316275,2.6283275 L89.0537775,2.6283275 C90.8392025,2.6283275 92.2914275,4.0805525 92.2914275,5.8659775 L92.2914275,28.4560025 C92.2914275,30.2410025 90.8392025,31.6932275 89.0537775,31.6932275 L5.4316275,31.6932275 Z" id="Fill-4" fill="#FEFEFE"></path>
                <mask id="mask-4" fill="white">
                    <use xlink:href="#path-3"></use>
                </mask>
                <g id="Clip-7"></g>
                <polygon id="Fill-6" fill="#FEFEFE" mask="url(#mask-4)" points="27.12265 25.5337875 28.000275 25.5337875 28.000275 8.7930375 27.12265 8.7930375"></polygon>
                <path d="M36.625225,21.4078875 L41.351225,21.4078875 L41.351225,20.3900125 L36.625225,20.3900125 L36.625225,21.4078875 Z M45.7317,24.3522875 C45.313925,23.5163125 45.11375,21.8439375 45.11375,19.2994625 L45.11375,15.9729875 L34.08075,15.9729875 L34.08075,14.4098375 L46.894925,14.4098375 L46.894925,19.2994625 C46.894925,21.0623625 46.931475,22.1894625 47.022425,22.6981875 C47.0951,23.1890625 47.222175,23.4436375 47.404075,23.4436375 C47.495025,23.4436375 47.603825,23.1890625 47.71305,22.6799125 C47.767875,22.2438625 47.822275,21.7712625 47.89495,21.2442625 L49.385425,21.9710125 C49.1674,23.4253625 48.89455,24.3884125 48.60385,24.8792875 C48.31315,25.3518875 47.967625,25.5881875 47.603825,25.5881875 C46.75,25.5703375 46.131625,25.1521375 45.7317,24.3522875 L45.7317,24.3522875 Z M39.824625,16.3185125 L39.824625,16.9364625 L44.29605,16.9364625 L44.29605,18.3177125 L39.824625,18.3177125 L39.824625,19.0631625 L42.950925,19.0631625 L42.950925,22.7347375 L41.27855,22.7347375 L41.27855,23.7887375 C41.27855,24.0067625 41.40605,24.1342625 41.6602,24.1342625 L42.9692,24.1342625 C43.150675,24.1342625 43.278175,24.0615875 43.3687,23.9523625 C43.477925,23.8435625 43.5506,23.4614875 43.58715,22.8074125 L45.11375,23.2978625 C45.00495,24.3884125 44.804775,25.0429125 44.514075,25.2430875 C44.241225,25.4245625 43.82345,25.5337875 43.2599,25.5337875 L41.205875,25.5337875 C40.169725,25.5337875 39.661,25.0611875 39.661,24.1525375 L39.661,22.7347375 L38.33415,22.7347375 C38.170525,23.6433875 37.8794,24.2617625 37.461625,24.5885875 C36.952475,25.0794625 35.6983,25.4067125 33.6991,25.5520625 L33.0446,24.0798625 C34.571625,24.0250375 35.5895,23.8618375 36.080375,23.5707125 C36.371075,23.3709625 36.570825,23.0981125 36.698325,22.7347375 L35.02595,22.7347375 L35.02595,19.0631625 L38.09785,19.0631625 L38.09785,18.3177125 L33.6447,18.3177125 L33.6447,16.9364625 L38.09785,16.9364625 L38.09785,16.3185125 L39.824625,16.3185125 Z M33.5172,14.6822625 L32.3901,13.1917875 C34.1717,11.9924375 35.371475,10.5380875 35.989425,8.7934625 L37.843275,9.0297625 C37.73405,9.3204625 37.6431,9.5928875 37.5343,9.8657375 L48.221775,9.8657375 L48.221775,11.4650125 L36.68005,11.4650125 C36.49815,11.7195875 36.31625,11.9741625 36.134775,12.2104625 L47.3858,12.2104625 L47.3858,13.6643875 L35.952875,13.6643875 L35.952875,12.4284875 C35.26225,13.2466125 34.4624,13.9916375 33.5172,14.6822625 L33.5172,14.6822625 Z" id="Fill-8" fill="#FEFEFE" mask="url(#mask-4)"></path>
                <path d="M66.598605,16.13657 L65.52633,17.75412 C63.89008,16.40942 62.199855,15.33672 60.47308,14.57342 L61.454405,13.082945 C63.34523,13.91892 65.05373,14.936795 66.598605,16.13657 L66.598605,16.13657 Z M58.546555,14.53687 C57.092205,15.80932 55.329305,16.86332 53.257005,17.69972 L52.439305,15.972945 C54.438505,15.24577 56.092605,14.318845 57.365055,13.191745 L58.546555,14.53687 Z M65.92583,18.02697 L65.92583,19.808145 L60.56403,19.808145 L60.56403,23.38877 L67.452855,23.38877 L67.452855,25.206495 L51.784805,25.206495 L51.784805,23.38877 L58.637505,23.38877 L58.637505,19.808145 L53.311405,19.808145 L53.311405,18.02697 L65.92583,18.02697 Z M60.60058,10.55632 L67.50768,10.55632 L67.50768,14.500745 L65.599005,14.500745 L65.599005,12.30137 L53.65693,12.30137 L53.65693,14.48247 L51.748255,14.48247 L51.748255,10.55632 L58.600955,10.55632 C58.38293,10.04717 58.14663,9.55672 57.892055,9.12067 L59.964355,8.79342 C60.18238,9.32042 60.382555,9.902245 60.60058,10.55632 L60.60058,10.55632 Z" id="Fill-9" fill="#FEFEFE" mask="url(#mask-4)"></path>
                <path d="M82.2669525,25.6245675 L81.7578025,23.8433925 L83.3392275,23.8977925 C83.7939775,23.8977925 84.0298525,23.5705425 84.0298525,22.9347425 L84.0298525,11.4469925 L77.2685275,11.4469925 L77.2685275,9.7019425 L85.8841275,9.7019425 L85.8841275,23.4617425 C85.8841275,24.8978175 85.1569525,25.6245675 83.7208775,25.6245675 L82.2669525,25.6245675 Z M76.3598775,20.9716675 L80.1950775,20.9716675 L80.1950775,19.0085925 L76.3598775,19.0085925 L76.3598775,20.9716675 Z M76.3598775,17.3723425 L80.1950775,17.3723425 L80.1950775,15.4092675 L76.3598775,15.4092675 L76.3598775,17.3723425 Z M74.5782775,22.6436175 L81.9579775,22.6436175 L81.9579775,13.7368925 L74.5782775,13.7368925 L74.5782775,22.6436175 Z M76.1779775,11.9922675 L74.4690525,12.8830675 C73.7967025,11.6106175 73.0512525,10.5017925 72.2518275,9.5383175 L73.9786025,8.7571675 C74.8145775,9.7384925 75.5417525,10.8107675 76.1779775,11.9922675 L76.1779775,11.9922675 Z M70.7613525,25.7881925 L72.6152025,25.7881925 L72.6152025,11.9739925 L70.7613525,11.9739925 L70.7613525,25.7881925 Z" id="Fill-10" fill="#FEFEFE" mask="url(#mask-4)"></path>
                <path d="M17.290955,19.1837775 L8.70808,19.1837775 C8.514705,19.1837775 8.35788,19.3406025 8.35788,19.5339775 L8.35788,25.5264775 L12.547955,25.5264775 L12.547955,21.8077275 C12.547955,21.6143525 12.70478,21.4575275 12.898155,21.4575275 L17.290955,21.4575275 C17.48433,21.4575275 17.641155,21.3007025 17.641155,21.1073275 L17.641155,19.5339775 C17.641155,19.3406025 17.48433,19.1837775 17.290955,19.1837775" id="Fill-11" fill="#FEFEFE" mask="url(#mask-4)"></path>
                <path d="M20.6297125,25.52142 C21.7891125,25.52057 22.7283625,24.580045 22.7283625,23.420645 L22.7283625,15.32312 C22.7283625,13.643945 20.6892125,12.984345 19.6755875,14.182845 L17.9551875,16.217745 L15.1939625,16.217745 C14.6253125,16.217745 14.1641875,16.67887 14.1641875,17.24752 L14.1641875,18.290045 L17.9547625,18.290045 C18.2769125,18.290045 18.5382875,18.55142 18.5382875,18.87357 L18.5382875,21.767395 C18.5382875,22.08997 18.2769125,22.351345 17.9547625,22.351345 L15.7558125,22.351345 C14.8764875,22.351345 14.1641875,23.06407 14.1641875,23.943395 L14.1641875,25.52652 L20.6297125,25.52142 Z" id="Fill-12" fill="#FEFEFE" mask="url(#mask-4)"></path>
                <path d="M18.487925,10.93984 C18.487925,9.75409 19.44885,8.793165 20.6346,8.793165 C21.819925,8.793165 22.781275,9.75409 22.781275,10.93984 C22.781275,12.12559 21.819925,13.086515 20.6346,13.086515 C19.44885,13.086515 18.487925,12.12559 18.487925,10.93984" id="Fill-13" fill="#FEFEFE" mask="url(#mask-4)"></path>
                <path d="M12.2504975,17.13991 L9.9542225,13.16786 C9.8143975,12.925185 9.5041475,12.84231 9.2618975,12.982135 L9.1883725,13.02421 C8.9461225,13.16446 8.8628225,13.474285 9.0030725,13.71696 L11.4778475,17.99841 C11.5819725,18.17861 11.7744975,18.28996 11.9831725,18.28996 L16.9582225,18.28996 L16.9582225,17.13991 L12.2504975,17.13991 Z" id="Fill-14" fill="#FEFEFE" mask="url(#mask-4)"></path>
            </g>
        </g>
    </g>
</svg>