<?xml version="1.0" encoding="UTF-8"?>
<svg width="120px" height="34px" viewBox="0 0 120 34" version="1.1" xmlns="http://www.w3.org/2000/svg" xmlns:xlink="http://www.w3.org/1999/xlink">
    <!-- Generator: Sketch 45.2 (43514) - http://www.bohemiancoding.com/sketch -->
    <title>OPLOGO</title>
    <desc>Created with Sketch.</desc>
    <defs>
        <polygon id="path-1" points="0.0002125 33.575 94.50045 33.575 94.50045 0.10965 0.0002125 0.10965"></polygon>
        <polygon id="path-3" points="0 33.8905625 94.50045 33.8905625 94.50045 0.4252125 0 0.4252125"></polygon>
    </defs>
    <g id="Page-1" stroke="none" stroke-width="1" fill="none" fill-rule="evenodd">
        <g id="OPLOGO">
            <g id="Page-1" transform="translate(13.000000, 0.000000)">
                <g id="Group-3" transform="translate(0.000000, 0.315563)">
                    <mask id="mask-2" fill="white">
                        <use xlink:href="#path-1"></use>
                    </mask>
                    <g id="Clip-2"></g>
                    <path d="M5.4283125,33.5750425 C2.4350375,33.5750425 0.0002125,31.1397925 0.0002125,28.1465175 L0.0002125,5.5377925 C0.0002125,2.5445175 2.4350375,0.1092675 5.4283125,0.1092675 L89.0725625,0.1092675 C92.0654125,0.1092675 94.5006625,2.5445175 94.5006625,5.5377925 L94.5006625,28.1465175 C94.5006625,31.1397925 92.0654125,33.5750425 89.0725625,33.5750425 L5.4283125,33.5750425 Z" id="Fill-1" fill="#3E4659" mask="url(#mask-2)"></path>
                </g>
                <path d="M5.4316275,3.5211675 C4.1387775,3.5211675 3.0873275,4.5730425 3.0873275,5.8658925 L3.0873275,28.4559175 C3.0873275,29.7487675 4.1387775,30.8006425 5.4316275,30.8006425 L89.0537775,30.8006425 C90.3466275,30.8006425 91.3985025,29.7487675 91.3985025,28.4559175 L91.3985025,5.8658925 C91.3985025,4.5730425 90.3466275,3.5211675 89.0537775,3.5211675 L5.4316275,3.5211675 Z M5.4316275,31.6935675 C3.6466275,31.6935675 2.1948275,30.2409175 2.1948275,28.4559175 L2.1948275,5.8658925 C2.1948275,4.0804675 3.6466275,2.6282425 5.4316275,2.6282425 L89.0537775,2.6282425 C90.8392025,2.6282425 92.2914275,4.0804675 92.2914275,5.8658925 L92.2914275,28.4559175 C92.2914275,30.2409175 90.8392025,31.6935675 89.0537775,31.6935675 L5.4316275,31.6935675 Z" id="Fill-4" fill="#FEFEFE"></path>
                <mask id="mask-4" fill="white">
                    <use xlink:href="#path-3"></use>
                </mask>
                <g id="Clip-7"></g>
                <polygon id="Fill-6" fill="#FEFEFE" mask="url(#mask-4)" points="27.12265 25.5337875 28.000275 25.5337875 28.000275 8.7930375 27.12265 8.7930375"></polygon>
                <path d="M36.625225,21.4078875 L41.351225,21.4078875 L41.351225,20.3900125 L36.625225,20.3900125 L36.625225,21.4078875 Z M45.7317,24.3522875 C45.313925,23.5163125 45.11375,21.8439375 45.11375,19.2994625 L45.11375,15.9729875 L34.08075,15.9729875 L34.08075,14.4098375 L46.894925,14.4098375 L46.894925,19.2994625 C46.894925,21.0623625 46.931475,22.1894625 47.022425,22.6981875 C47.0951,23.1890625 47.222175,23.4436375 47.404075,23.4436375 C47.495025,23.4436375 47.603825,23.1890625 47.71305,22.6803375 C47.767875,22.2438625 47.822275,21.7712625 47.89495,21.2442625 L49.385425,21.9714375 C49.1674,23.4253625 48.89455,24.3888375 48.60385,24.8792875 C48.31315,25.3518875 47.967625,25.5881875 47.603825,25.5881875 C46.75,25.5699125 46.131625,25.1521375 45.7317,24.3522875 L45.7317,24.3522875 Z M39.824625,16.3180875 L39.824625,16.9364625 L44.29605,16.9364625 L44.29605,18.3177125 L39.824625,18.3177125 L39.824625,19.0631625 L42.950925,19.0631625 L42.950925,22.7347375 L41.27855,22.7347375 L41.27855,23.7887375 C41.27855,24.0067625 41.40605,24.1342625 41.6602,24.1342625 L42.9692,24.1342625 C43.150675,24.1342625 43.278175,24.0615875 43.3687,23.9523625 C43.477925,23.8431375 43.5506,23.4619125 43.58715,22.8074125 L45.11375,23.2978625 C45.00495,24.3888375 44.804775,25.0429125 44.514075,25.2430875 C44.241225,25.4245625 43.82345,25.5337875 43.2599,25.5337875 L41.205875,25.5337875 C40.169725,25.5337875 39.661,25.0611875 39.661,24.1525375 L39.661,22.7347375 L38.33415,22.7347375 C38.170525,23.6433875 37.8794,24.2613375 37.461625,24.5885875 C36.952475,25.0794625 35.6983,25.4067125 33.6991,25.5520625 L33.0446,24.0798625 C34.571625,24.0250375 35.5895,23.8614125 36.080375,23.5707125 C36.371075,23.3709625 36.570825,23.0981125 36.698325,22.7347375 L35.02595,22.7347375 L35.02595,19.0631625 L38.09785,19.0631625 L38.09785,18.3177125 L33.6447,18.3177125 L33.6447,16.9364625 L38.09785,16.9364625 L38.09785,16.3180875 L39.824625,16.3180875 Z M33.5172,14.6822625 L32.3901,13.1917875 C34.1717,11.9924375 35.371475,10.5380875 35.989425,8.7930375 L37.843275,9.0297625 C37.73405,9.3204625 37.6431,9.5928875 37.5343,9.8657375 L48.221775,9.8657375 L48.221775,11.4650125 L36.68005,11.4650125 C36.49815,11.7195875 36.31625,11.9741625 36.134775,12.2104625 L47.3858,12.2104625 L47.3858,13.6643875 L35.952875,13.6643875 L35.952875,12.4284875 C35.26225,13.2461875 34.4624,13.9916375 33.5172,14.6822625 L33.5172,14.6822625 Z" id="Fill-8" fill="#FEFEFE" mask="url(#mask-4)"></path>
                <path d="M66.598605,16.136485 L65.52633,17.75446 C63.89008,16.409335 62.199855,15.336635 60.47308,14.573335 L61.454405,13.08286 C63.34523,13.91926 65.05373,14.93671 66.598605,16.136485 L66.598605,16.136485 Z M58.546555,14.536785 C57.092205,15.809235 55.329305,16.86366 53.257005,17.699635 L52.439305,15.97286 C54.438505,15.245685 56.092605,14.319185 57.365055,13.192085 L58.546555,14.536785 Z M65.92583,18.026885 L65.92583,19.808485 L60.56403,19.808485 L60.56403,23.388685 L67.452855,23.388685 L67.452855,25.206835 L51.784805,25.206835 L51.784805,23.388685 L58.637505,23.388685 L58.637505,19.808485 L53.311405,19.808485 L53.311405,18.026885 L65.92583,18.026885 Z M60.60058,10.556235 L67.50768,10.556235 L67.50768,14.50066 L65.599005,14.50066 L65.599005,12.301285 L53.65693,12.301285 L53.65693,14.482385 L51.748255,14.482385 L51.748255,10.556235 L58.600955,10.556235 C58.38293,10.04751 58.14663,9.556635 57.892055,9.120585 L59.964355,8.793335 C60.18238,9.320335 60.382555,9.90216 60.60058,10.556235 L60.60058,10.556235 Z" id="Fill-9" fill="#FEFEFE" mask="url(#mask-4)"></path>
                <path d="M82.2669525,25.624695 L81.7578025,23.84352 L83.3392275,23.89792 C83.7939775,23.89792 84.0298525,23.57067 84.0298525,22.934445 L84.0298525,11.44712 L77.2685275,11.44712 L77.2685275,9.70207 L85.8841275,9.70207 L85.8841275,23.46187 C85.8841275,24.89752 85.1569525,25.624695 83.7208775,25.624695 L82.2669525,25.624695 Z M76.3598775,20.97137 L80.1950775,20.97137 L80.1950775,19.008295 L76.3598775,19.008295 L76.3598775,20.97137 Z M76.3598775,17.37247 L80.1950775,17.37247 L80.1950775,15.409395 L76.3598775,15.409395 L76.3598775,17.37247 Z M74.5782775,22.643745 L81.9579775,22.643745 L81.9579775,13.73702 L74.5782775,13.73702 L74.5782775,22.643745 Z M76.1779775,11.992395 L74.4690525,12.883195 C73.7967025,11.61032 73.0512525,10.50192 72.2518275,9.538445 L73.9786025,8.75687 C74.8145775,9.73862 75.5417525,10.810895 76.1779775,11.992395 L76.1779775,11.992395 Z M70.7613525,25.78832 L72.6152025,25.78832 L72.6152025,11.97412 L70.7613525,11.97412 L70.7613525,25.78832 Z" id="Fill-10" fill="#FEFEFE" mask="url(#mask-4)"></path>
                <path d="M17.290955,19.1836925 L8.70808,19.1836925 C8.514705,19.1836925 8.35788,19.3405175 8.35788,19.5338925 L8.35788,25.5268175 L12.547955,25.5268175 L12.547955,21.8076425 C12.547955,21.6142675 12.70478,21.4574425 12.898155,21.4574425 L17.290955,21.4574425 C17.48433,21.4574425 17.641155,21.3006175 17.641155,21.1072425 L17.641155,19.5338925 C17.641155,19.3405175 17.48433,19.1836925 17.290955,19.1836925" id="Fill-11" fill="#FEFEFE" mask="url(#mask-4)"></path>
                <path d="M20.6297125,25.521335 C21.7891125,25.520485 22.7283625,24.580385 22.7283625,23.42056 L22.7283625,15.323035 C22.7283625,13.64386 20.6892125,12.98426 19.6755875,14.18276 L17.9551875,16.21766 L15.1939625,16.21766 C14.6253125,16.21766 14.1641875,16.678785 14.1641875,17.247435 L14.1641875,18.28996 L17.9547625,18.28996 C18.2769125,18.28996 18.5382875,18.551335 18.5382875,18.87391 L18.5382875,21.76731 C18.5382875,22.089885 18.2769125,22.35126 17.9547625,22.35126 L15.7558125,22.35126 C14.8764875,22.35126 14.1641875,23.063985 14.1641875,23.94331 L14.1641875,25.52686 L20.6297125,25.521335 Z" id="Fill-12" fill="#FEFEFE" mask="url(#mask-4)"></path>
                <path d="M18.487925,10.9397975 C18.487925,9.7540475 19.44885,8.7931225 20.6346,8.7931225 C21.819925,8.7931225 22.781275,9.7540475 22.781275,10.9397975 C22.781275,12.1255475 21.819925,13.0864725 20.6346,13.0864725 C19.44885,13.0864725 18.487925,12.1255475 18.487925,10.9397975" id="Fill-13" fill="#FEFEFE" mask="url(#mask-4)"></path>
                <path d="M12.2504975,17.139825 L9.9542225,13.167775 C9.8143975,12.9251 9.5041475,12.842225 9.2618975,12.98205 L9.1883725,13.02455 C8.9461225,13.164375 8.8628225,13.4742 9.0030725,13.716875 L11.4778475,17.998325 C11.5819725,18.17895 11.7744975,18.2903 11.9831725,18.2903 L16.9582225,18.2903 L16.9582225,17.139825 L12.2504975,17.139825 Z" id="Fill-14" fill="#FEFEFE" mask="url(#mask-4)"></path>
            </g>
        </g>
    </g>
</svg>