<?xml version="1.0" standalone="no"?><!DOCTYPE svg PUBLIC "-//W3C//DTD SVG 1.1//EN" "http://www.w3.org/Graphics/SVG/1.1/DTD/svg11.dtd"><svg t="1524721595360" class="icon" style="" viewBox="0 0 1024 1024" version="1.1" xmlns="http://www.w3.org/2000/svg" p-id="12241" xmlns:xlink="http://www.w3.org/1999/xlink" width="200" height="200"><defs><style type="text/css"></style></defs><path d="M498.631111 472.177778L329.728 292.636444a25.486222 25.486222 0 0 0-25.6-7.281777 27.420444 27.420444 0 0 0-18.773333 19.911111 29.411556 29.411556 0 0 0 6.826666 27.306666L461.198222 512l-168.96 179.427556a29.411556 29.411556 0 0 0 0 39.822222 25.429333 25.429333 0 0 0 37.546667 0.056889l168.846222-179.427556 168.96 179.427556c6.656 7.111111 16.440889 9.898667 25.6 7.281777a27.420444 27.420444 0 0 0 18.773333-19.911111 29.411556 29.411556 0 0 0-6.883555-27.306666L536.120889 512l168.561778-179.143111a29.354667 29.354667 0 0 0 7.224889-27.363556 27.420444 27.420444 0 0 0-18.944-20.138666 25.486222 25.486222 0 0 0-25.770667 7.68L498.631111 472.177778zM512 1024A512 512 0 1 1 512 0a512 512 0 0 1 0 1024z" fill="#000000" p-id="12242"></path></svg>