<?xml version="1.0" standalone="no"?><!DOCTYPE svg PUBLIC "-//W3C//DTD SVG 1.1//EN" "http://www.w3.org/Graphics/SVG/1.1/DTD/svg11.dtd"><svg t="1521201271317" class="icon" style="" viewBox="0 0 1024 1024" version="1.1" xmlns="http://www.w3.org/2000/svg" p-id="8956" xmlns:xlink="http://www.w3.org/1999/xlink" width="32" height="32"><defs><style type="text/css"></style></defs><path d="M0 294.946c0-0.033 0-0.071 0-0.11 0-9.518 3.384-18.244 9.013-25.044 6.842-8.407 17.27-13.776 28.952-13.776 9.397 0 17.982 3.474 24.542 9.207l458.96 412.886 440.187-411.068c6.498-5.632 15.037-9.064 24.377-9.064 11.751 0 22.231 5.431 29.071 13.92 5.562 6.829 8.898 15.546 8.898 25.042 0 11.927-5.264 22.628-13.595 29.901l-464.746 432.035c-6.494 5.646-15.034 9.086-24.379 9.086-9.379 0-17.948-3.466-24.496-9.188l-483.278-434.006c-8.294-7.254-13.504-17.857-13.504-29.676 0-0.052 0-0.105 0-0.156z" fill="#499df1" p-id="8957"></path></svg>